<svg xmlns="http://www.w3.org/2000/svg" xmlns:xlink="http://www.w3.org/1999/xlink" width="1536" height="649" version="1.1">
<style type="text/css">
.l0{
 fill: #ffffff;
  stroke: #ffffff;
  stroke-linecap:round;
  stroke-linejoin:round;
  stroke-width: 0.731534;
}
.l1{
 fill: #0044ee;
  stroke: #0044ee;
  stroke-linecap:round;
  stroke-linejoin:round;
  stroke-width: 0.731534;
}
.l2{
  fill: none;
  stroke: #aaaaaa;
  stroke-linecap:round;
  stroke-linejoin:round;
  stroke-width: 0.731534;
}
.l3{
 fill: #222222; fill-opacity: 0.5;
  stroke: #222222;
  stroke-linecap:round;
  stroke-linejoin:round;
  stroke-width: 0.731534;
}
.l4{
 fill: #229900;
  stroke: #229900;
  stroke-linecap:round;
  stroke-linejoin:round;
  stroke-width: 0.731534;
}
.l5{
 fill: #bb2200;
  stroke: #bb2200;
  stroke-linecap:round;
  stroke-linejoin:round;
  stroke-width: 0.731534;
}
.l6{
 fill: #00ccee; fill-opacity: 0.5;
  stroke: #00ccee;
  stroke-linecap:round;
  stroke-linejoin:round;
  stroke-width: 0.731534;
}
.l7{
 fill: #ff0000; fill-opacity: 0.5;
  stroke: #ff0000;
  stroke-linecap:round;
  stroke-linejoin:round;
  stroke-width: 0.731534;
}
.l8{
 fill: #888800; fill-opacity: 0.5;
  stroke: #888800;
  stroke-linecap:round;
  stroke-linejoin:round;
  stroke-width: 0.731534;
}
.l9{
 fill: #00aaaa; fill-opacity: 0.5;
  stroke: #00aaaa;
  stroke-linecap:round;
  stroke-linejoin:round;
  stroke-width: 0.731534;
}
.l10{
 fill: #880088;
  stroke: #880088;
  stroke-linecap:round;
  stroke-linejoin:round;
  stroke-width: 0.731534;
}
.l11{
 fill: #00ff00; fill-opacity: 0.5;
  stroke: #00ff00;
  stroke-linecap:round;
  stroke-linejoin:round;
  stroke-width: 0.731534;
}
.l12{
 fill: #0000cc; fill-opacity: 0.5;
  stroke: #0000cc;
  stroke-linecap:round;
  stroke-linejoin:round;
  stroke-width: 0.731534;
}
.l13{
 fill: #666600; fill-opacity: 0.5;
  stroke: #666600;
  stroke-linecap:round;
  stroke-linejoin:round;
  stroke-width: 0.731534;
}
.l14{
  fill: none;
  stroke: #557755;
  stroke-linecap:round;
  stroke-linejoin:round;
  stroke-width: 0.731534;
}
.l15{
 fill: #aa2222; fill-opacity: 0.5;
  stroke: #aa2222;
  stroke-linecap:round;
  stroke-linejoin:round;
  stroke-width: 0.731534;
}
.l16{
 fill: #7ccc40; fill-opacity: 0.5;
  stroke: #7ccc40;
  stroke-linecap:round;
  stroke-linejoin:round;
  stroke-width: 0.731534;
}
.l17{
  fill: none;
  stroke: #00ffcc;
  stroke-linecap:round;
  stroke-linejoin:round;
  stroke-width: 0.731534;
}
.l18{
 fill: #ce0097; fill-opacity: 0.5;
  stroke: #ce0097;
  stroke-linecap:round;
  stroke-linejoin:round;
  stroke-width: 0.731534;
}
.l19{
  fill: none;
  stroke: #d2d46b;
  stroke-linecap:round;
  stroke-linejoin:round;
  stroke-width: 0.731534;
}
.l20{
  fill: none;
  stroke: #ef6158;
  stroke-linecap:round;
  stroke-linejoin:round;
  stroke-width: 0.731534;
}
.l21{
  fill: none;
  stroke: #fdb200;
  stroke-linecap:round;
  stroke-linejoin:round;
  stroke-width: 0.731534;
}
text {font-family: Sans-Serif;}
</style>
<rect class="l0" x="0" y="0" width="1536" height="649"/>
<text fill="#0044ee"  xml:space="preserve" font-size="11.6233" transform="translate(500.231, 174.576)" >Vb1</text>
<text fill="#0044ee"  xml:space="preserve" font-size="11.6233" transform="translate(601.833, 174.576)" >out</text>
<text fill="#0044ee"  xml:space="preserve" font-size="11.6233" transform="translate(554.418, 540.343)" >out2</text>
<text fill="#0044ee"  xml:space="preserve" font-size="11.6233" transform="translate(674.274, 161.029)" >out</text>
<text fill="#0044ee"  xml:space="preserve" font-size="11.6233" transform="translate(667.274, 255.857)" >out2</text>
<text fill="#0044ee"  xml:space="preserve" font-size="11.6233" transform="translate(744.075, 208.443)" >VOUT</text>
<text fill="#0044ee"  xml:space="preserve" font-size="11.6233" transform="translate(236.065, 323.592)" >VOUT</text>
<text fill="#0044ee"  xml:space="preserve" font-size="11.6233" transform="translate(368.468, 343.912)" >VIN</text>
<text fill="#0044ee"  xml:space="preserve" font-size="11.6233" transform="translate(507.004, 465.835)" >Vb1</text>
<text fill="#0044ee"  xml:space="preserve" font-size="11.6233" transform="translate(676.341, 411.647)" >Vb1</text>
<text fill="#0044ee"  xml:space="preserve" font-size="11.6233" transform="translate(427.283, 72.5504)" >VOUT</text>
<text fill="#0044ee"  xml:space="preserve" font-size="11.6233" transform="translate(442.13, 59.0035)" >VIN</text>
<text fill="#0044ee"  xml:space="preserve" font-size="11.6233" transform="translate(479.91, 57.1018)" >VIN</text>
<text fill="#0044ee"  xml:space="preserve" font-size="11.6233" transform="translate(479.91, 70.6488)" >VOUT</text>
<text fill="#0044ee"  xml:space="preserve" font-size="11.6233" transform="translate(371.535, 323.592)" >VSSA</text>
<text fill="#0044ee"  xml:space="preserve" font-size="11.6233" transform="translate(728.174, 319.754) rotate(270)" >VSSA</text>
<text fill="#0044ee"  xml:space="preserve" font-size="11.6233" transform="translate(667.213, 495.864) rotate(270)" >VSSA</text>
<text fill="#0044ee"  xml:space="preserve" font-size="11.6233" transform="translate(504.649, 638.107) rotate(270)" >VSSA</text>
<text fill="#0044ee"  xml:space="preserve" font-size="11.6233" transform="translate(431.389, 38.2598)" >VSSA</text>
<text fill="#0044ee"  xml:space="preserve" font-size="11.6233" transform="translate(479.91, 39.1065)" >VSSA</text>
<text fill="#0044ee"  xml:space="preserve" font-size="11.6233" transform="translate(427.389, 24.7128)" >VDDA</text>
<text fill="#0044ee"  xml:space="preserve" font-size="11.6233" transform="translate(479.91, 23.2345)" >VDDA</text>
<text fill="#0044ee"  xml:space="preserve" font-size="11.6233" transform="translate(669.538, 340.555) rotate(270)" >VDDA</text>
<text fill="#0044ee"  xml:space="preserve" font-size="11.6233" transform="translate(730.499, 117.031) rotate(270)" >VDDA</text>
<text fill="#0044ee"  xml:space="preserve" font-size="11.6233" transform="translate(364.761, 93.2942)" >VDDA</text>
<text fill="#0044ee"  xml:space="preserve" font-size="11.6233" transform="translate(527.324, 398.1)" >VDDA</text>
<text fill="#0044ee"  xml:space="preserve" font-size="11.6233" transform="translate(42.889, 133.935)" >VDDA</text>
<text fill="#0044ee"  xml:space="preserve" font-size="11.6233" transform="translate(181.878, 133.935)" >VDDA</text>
<text fill="#0044ee"  xml:space="preserve" font-size="11.6233" transform="translate(121.397, 235.537)" >VSSA</text>
<text fill="#0044ee"  xml:space="preserve" font-size="11.6233" transform="translate(344.441, 140.708)" >VDDA</text>
<text fill="#0044ee"  xml:space="preserve" font-size="11.6233" transform="translate(290.253, 194.896)" >VDDA</text>
<text fill="#0044ee"  xml:space="preserve" font-size="11.6233" transform="translate(334.148, 194.896)" >VDDA</text>
<text fill="#0044ee"  xml:space="preserve" font-size="11.6233" transform="translate(415.43, 140.708)" >VDDA</text>
<text fill="#0044ee"  xml:space="preserve" font-size="11.6233" transform="translate(547.645, 140.708)" >VDDA</text>
<text fill="#0044ee"  xml:space="preserve" font-size="11.6233" transform="translate(554.418, 208.443)" >VSSA</text>
<text fill="#0044ee"  xml:space="preserve" font-size="11.6233" transform="translate(419.43, 208.443)" >VSSA</text>
<text fill="#0044ee"  xml:space="preserve" font-size="11.6233" transform="translate(419.43, 269.404)" >VSSA</text>
<text fill="#0044ee"  xml:space="preserve" font-size="11.6233" transform="translate(547.645, 269.404)" >VSSA</text>
<text fill="#0044ee"  xml:space="preserve" font-size="11.6233" transform="translate(422.203, 438.741)" >VDDA</text>
<text fill="#0044ee"  xml:space="preserve" font-size="11.6233" transform="translate(554.418, 438.741)" >VDDA</text>
<text fill="#0044ee"  xml:space="preserve" font-size="11.6233" transform="translate(422.203, 506.475)" >VDDA</text>
<text fill="#0044ee"  xml:space="preserve" font-size="11.6233" transform="translate(561.192, 506.475)" >VDDA</text>
<text fill="#0044ee"  xml:space="preserve" font-size="11.6233" transform="translate(426.203, 565.112)" >VSSA</text>
<text fill="#0044ee"  xml:space="preserve" font-size="11.6233" transform="translate(554.418, 565.112)" >VSSA</text>
<text fill="#0044ee"  xml:space="preserve" font-size="11.6233" transform="translate(276.706, 513.249)" >VSSA</text>
<text fill="#0044ee"  xml:space="preserve" font-size="11.6233" transform="translate(324.601, 513.249)" >VSSA</text>
<text fill="#0044ee"  xml:space="preserve" font-size="11.6233" transform="translate(351.214, 567.437)" >VSSA</text>
<text fill="#0044ee"  xml:space="preserve" font-size="11.6233" transform="translate(40.1156, 181.349)" >VSSA</text>
<text fill="#0044ee"  xml:space="preserve" font-size="11.6233" transform="translate(789.423, 161.029)" >out</text>
<text fill="#0044ee"  xml:space="preserve" font-size="11.6233" transform="translate(782.423, 255.857)" >out2</text>
<text fill="#0044ee"  xml:space="preserve" font-size="11.6233" transform="translate(859.224, 208.443)" >VOUT</text>
<text fill="#0044ee"  xml:space="preserve" font-size="11.6233" transform="translate(843.323, 319.754) rotate(270)" >VSSA</text>
<text fill="#0044ee"  xml:space="preserve" font-size="11.6233" transform="translate(845.648, 117.031) rotate(270)" >VDDA</text>
<text fill="#0044ee"  xml:space="preserve" font-size="11.6233" transform="translate(897.799, 161.029)" >out</text>
<text fill="#0044ee"  xml:space="preserve" font-size="11.6233" transform="translate(890.799, 255.857)" >out2</text>
<text fill="#0044ee"  xml:space="preserve" font-size="11.6233" transform="translate(967.6, 208.443)" >VOUT</text>
<text fill="#0044ee"  xml:space="preserve" font-size="11.6233" transform="translate(951.698, 319.754) rotate(270)" >VSSA</text>
<text fill="#0044ee"  xml:space="preserve" font-size="11.6233" transform="translate(954.023, 117.031) rotate(270)" >VDDA</text>
<text fill="#0044ee"  xml:space="preserve" font-size="11.6233" transform="translate(1012.95, 167.802)" >out</text>
<text fill="#0044ee"  xml:space="preserve" font-size="11.6233" transform="translate(1005.95, 262.631)" >out2</text>
<text fill="#0044ee"  xml:space="preserve" font-size="11.6233" transform="translate(1082.75, 215.217)" >VOUT</text>
<text fill="#0044ee"  xml:space="preserve" font-size="11.6233" transform="translate(1066.85, 326.528) rotate(270)" >VSSA</text>
<text fill="#0044ee"  xml:space="preserve" font-size="11.6233" transform="translate(1069.17, 123.804) rotate(270)" >VDDA</text>
<text fill="#0044ee"  xml:space="preserve" font-size="11.6233" transform="translate(615.86, 382.228)" >VSSA</text>
<text fill="#0044ee"  xml:space="preserve" font-size="11.6233" transform="translate(615.86, 436.416)" >VSSA</text>
<text fill="#222222"  xml:space="preserve" font-size="7.0444" transform="translate(98.9028, 114.96)" >M1</text>
<text fill="#ff0000"  xml:space="preserve" font-size="5.2833" transform="translate(83.0492, 145.535)" >D</text>
<text fill="#ff0000"  xml:space="preserve" font-size="5.2833" transform="translate(83.0492, 115.768)" >S</text>
<text fill="#ff0000"  xml:space="preserve" font-size="5.2833" transform="translate(84.7426, 126.908)" >B</text>
<text fill="#ff0000"  xml:space="preserve" font-size="5.2833" transform="translate(110.333, 126.908)" >G</text>
<text fill="#222222"  xml:space="preserve" font-size="7.0444" transform="translate(28.9691, 121.274)" >pfet_g5v0d10v5</text>
<text fill="#666600"  xml:space="preserve" font-size="7.0444" transform="translate(55.1225, 144.594)" >1 x 8 / 1</text>
<text fill="#666600"  xml:space="preserve" font-size="7.0444" transform="translate(65.1225, 136.127)" >nf=1</text>
<text fill="#222222"  xml:space="preserve" font-size="7.0444" transform="translate(149.864, 114.96)" >M2</text>
<text fill="#ff0000"  xml:space="preserve" font-size="5.2833" transform="translate(171.718, 145.535)" >D</text>
<text fill="#ff0000"  xml:space="preserve" font-size="5.2833" transform="translate(171.718, 115.768)" >S</text>
<text fill="#ff0000"  xml:space="preserve" font-size="5.2833" transform="translate(170.024, 126.908)" >B</text>
<text fill="#ff0000"  xml:space="preserve" font-size="5.2833" transform="translate(144.434, 126.908)" >G</text>
<text fill="#222222"  xml:space="preserve" font-size="7.0444" transform="translate(176.798, 121.274)" >pfet_g5v0d10v5</text>
<text fill="#666600"  xml:space="preserve" font-size="7.0444" transform="translate(177.644, 144.594)" >1 x 8 / 1</text>
<text fill="#666600"  xml:space="preserve" font-size="7.0444" transform="translate(177.644, 136.127)" >nf=1</text>
<text fill="#222222"  xml:space="preserve" font-size="7.0444" transform="translate(180.184, 216.562)" >M3</text>
<text fill="#ff0000"  xml:space="preserve" font-size="5.2833" transform="translate(164.331, 247.137)" >S</text>
<text fill="#ff0000"  xml:space="preserve" font-size="5.2833" transform="translate(164.331, 217.37)" >D</text>
<text fill="#ff0000"  xml:space="preserve" font-size="5.2833" transform="translate(166.024, 228.51)" >B</text>
<text fill="#ff0000"  xml:space="preserve" font-size="5.2833" transform="translate(190.345, 228.51)" >G</text>
<text fill="#222222"  xml:space="preserve" font-size="7.0444" transform="translate(110.251, 222.876)" >nfet_g5v0d10v5</text>
<text fill="#666600"  xml:space="preserve" font-size="7.0444" transform="translate(130.404, 246.196)" >1 x 4 / 0.5</text>
<text fill="#666600"  xml:space="preserve" font-size="7.0444" transform="translate(146.404, 237.729)" >nf=1</text>
<text fill="#222222"  xml:space="preserve" font-size="7.0444" transform="translate(311.427, 121.734)" >M4</text>
<text fill="#ff0000"  xml:space="preserve" font-size="5.2833" transform="translate(334.281, 152.309)" >D</text>
<text fill="#ff0000"  xml:space="preserve" font-size="5.2833" transform="translate(334.281, 122.542)" >S</text>
<text fill="#ff0000"  xml:space="preserve" font-size="5.2833" transform="translate(332.587, 133.682)" >B</text>
<text fill="#ff0000"  xml:space="preserve" font-size="5.2833" transform="translate(306.997, 133.682)" >G</text>
<text fill="#222222"  xml:space="preserve" font-size="7.0444" transform="translate(339.361, 128.048)" >pfet_g5v0d10v5</text>
<text fill="#666600"  xml:space="preserve" font-size="7.0444" transform="translate(340.207, 151.368)" >1 x 2 / 1</text>
<text fill="#666600"  xml:space="preserve" font-size="7.0444" transform="translate(340.207, 142.901)" >nf=1</text>
<text fill="#222222"  xml:space="preserve" font-size="7.0444" transform="translate(258.239, 175.922)" >M5</text>
<text fill="#ff0000"  xml:space="preserve" font-size="5.2833" transform="translate(280.093, 206.496)" >D</text>
<text fill="#ff0000"  xml:space="preserve" font-size="5.2833" transform="translate(280.093, 176.729)" >S</text>
<text fill="#ff0000"  xml:space="preserve" font-size="5.2833" transform="translate(278.4, 187.869)" >B</text>
<text fill="#ff0000"  xml:space="preserve" font-size="5.2833" transform="translate(252.809, 187.869)" >G</text>
<text fill="#222222"  xml:space="preserve" font-size="7.0444" transform="translate(285.173, 182.235)" >pfet_g5v0d10v5</text>
<text fill="#666600"  xml:space="preserve" font-size="7.0444" transform="translate(286.02, 205.555)" >1 x 4 / 1</text>
<text fill="#666600"  xml:space="preserve" font-size="7.0444" transform="translate(286.02, 197.089)" >nf=1</text>
<text fill="#222222"  xml:space="preserve" font-size="7.0444" transform="translate(390.162, 175.922)" >M6</text>
<text fill="#ff0000"  xml:space="preserve" font-size="5.2833" transform="translate(374.308, 206.496)" >D</text>
<text fill="#ff0000"  xml:space="preserve" font-size="5.2833" transform="translate(374.308, 176.729)" >S</text>
<text fill="#ff0000"  xml:space="preserve" font-size="5.2833" transform="translate(376.002, 187.869)" >B</text>
<text fill="#ff0000"  xml:space="preserve" font-size="5.2833" transform="translate(401.592, 187.869)" >G</text>
<text fill="#222222"  xml:space="preserve" font-size="7.0444" transform="translate(320.228, 182.235)" >pfet_g5v0d10v5</text>
<text fill="#666600"  xml:space="preserve" font-size="7.0444" transform="translate(346.381, 205.555)" >1 x 4 / 1</text>
<text fill="#666600"  xml:space="preserve" font-size="7.0444" transform="translate(356.381, 197.089)" >nf=1</text>
<text fill="#222222"  xml:space="preserve" font-size="7.0444" transform="translate(515.631, 121.734)" >M7</text>
<text fill="#ff0000"  xml:space="preserve" font-size="5.2833" transform="translate(537.485, 152.309)" >D</text>
<text fill="#ff0000"  xml:space="preserve" font-size="5.2833" transform="translate(537.485, 122.542)" >S</text>
<text fill="#ff0000"  xml:space="preserve" font-size="5.2833" transform="translate(535.791, 133.682)" >B</text>
<text fill="#ff0000"  xml:space="preserve" font-size="5.2833" transform="translate(510.201, 133.682)" >G</text>
<text fill="#222222"  xml:space="preserve" font-size="7.0444" transform="translate(542.565, 128.048)" >pfet_g5v0d10v5</text>
<text fill="#666600"  xml:space="preserve" font-size="7.0444" transform="translate(543.411, 151.368)" >1 x 8 / 1</text>
<text fill="#666600"  xml:space="preserve" font-size="7.0444" transform="translate(543.411, 142.901)" >nf=1</text>
<text fill="#222222"  xml:space="preserve" font-size="7.0444" transform="translate(471.443, 121.734)" >M8</text>
<text fill="#ff0000"  xml:space="preserve" font-size="5.2833" transform="translate(455.59, 152.309)" >D</text>
<text fill="#ff0000"  xml:space="preserve" font-size="5.2833" transform="translate(455.59, 122.542)" >S</text>
<text fill="#ff0000"  xml:space="preserve" font-size="5.2833" transform="translate(457.283, 133.682)" >B</text>
<text fill="#ff0000"  xml:space="preserve" font-size="5.2833" transform="translate(482.874, 133.682)" >G</text>
<text fill="#222222"  xml:space="preserve" font-size="7.0444" transform="translate(401.51, 128.048)" >pfet_g5v0d10v5</text>
<text fill="#666600"  xml:space="preserve" font-size="7.0444" transform="translate(427.663, 151.368)" >1 x 8 / 1</text>
<text fill="#666600"  xml:space="preserve" font-size="7.0444" transform="translate(437.663, 142.901)" >nf=1</text>
<text fill="#222222"  xml:space="preserve" font-size="7.0444" transform="translate(471.443, 189.469)" >M9</text>
<text fill="#ff0000"  xml:space="preserve" font-size="5.2833" transform="translate(455.59, 220.043)" >S</text>
<text fill="#ff0000"  xml:space="preserve" font-size="5.2833" transform="translate(455.59, 190.276)" >D</text>
<text fill="#ff0000"  xml:space="preserve" font-size="5.2833" transform="translate(457.283, 201.416)" >B</text>
<text fill="#ff0000"  xml:space="preserve" font-size="5.2833" transform="translate(481.604, 201.416)" >G</text>
<text fill="#222222"  xml:space="preserve" font-size="7.0444" transform="translate(401.51, 195.782)" >nfet_g5v0d10v5</text>
<text fill="#666600"  xml:space="preserve" font-size="7.0444" transform="translate(421.663, 219.102)" >1 x 2 / 0.5</text>
<text fill="#666600"  xml:space="preserve" font-size="7.0444" transform="translate(437.663, 210.636)" >nf=1</text>
<text fill="#222222"  xml:space="preserve" font-size="7.0444" transform="translate(510.631, 189.469)" >M10</text>
<text fill="#ff0000"  xml:space="preserve" font-size="5.2833" transform="translate(537.485, 220.043)" >S</text>
<text fill="#ff0000"  xml:space="preserve" font-size="5.2833" transform="translate(537.485, 190.276)" >D</text>
<text fill="#ff0000"  xml:space="preserve" font-size="5.2833" transform="translate(535.791, 201.416)" >B</text>
<text fill="#ff0000"  xml:space="preserve" font-size="5.2833" transform="translate(511.471, 201.416)" >G</text>
<text fill="#222222"  xml:space="preserve" font-size="7.0444" transform="translate(542.565, 195.782)" >nfet_g5v0d10v5</text>
<text fill="#666600"  xml:space="preserve" font-size="7.0444" transform="translate(543.411, 219.102)" >1 x 2 / 0.5</text>
<text fill="#666600"  xml:space="preserve" font-size="7.0444" transform="translate(543.411, 210.636)" >nf=1</text>
<text fill="#222222"  xml:space="preserve" font-size="7.0444" transform="translate(471.443, 250.43)" >M11</text>
<text fill="#ff0000"  xml:space="preserve" font-size="5.2833" transform="translate(455.59, 281.005)" >S</text>
<text fill="#ff0000"  xml:space="preserve" font-size="5.2833" transform="translate(455.59, 251.237)" >D</text>
<text fill="#ff0000"  xml:space="preserve" font-size="5.2833" transform="translate(457.283, 262.378)" >B</text>
<text fill="#ff0000"  xml:space="preserve" font-size="5.2833" transform="translate(481.604, 262.378)" >G</text>
<text fill="#222222"  xml:space="preserve" font-size="7.0444" transform="translate(401.51, 256.743)" >nfet_g5v0d10v5</text>
<text fill="#666600"  xml:space="preserve" font-size="7.0444" transform="translate(421.663, 280.064)" >1 x 2 / 0.5</text>
<text fill="#666600"  xml:space="preserve" font-size="7.0444" transform="translate(437.663, 271.597)" >nf=1</text>
<text fill="#222222"  xml:space="preserve" font-size="7.0444" transform="translate(511.631, 250.43)" >M12</text>
<text fill="#ff0000"  xml:space="preserve" font-size="5.2833" transform="translate(537.485, 281.005)" >S</text>
<text fill="#ff0000"  xml:space="preserve" font-size="5.2833" transform="translate(537.485, 251.237)" >D</text>
<text fill="#ff0000"  xml:space="preserve" font-size="5.2833" transform="translate(535.791, 262.378)" >B</text>
<text fill="#ff0000"  xml:space="preserve" font-size="5.2833" transform="translate(511.471, 262.378)" >G</text>
<text fill="#222222"  xml:space="preserve" font-size="7.0444" transform="translate(542.565, 256.743)" >nfet_g5v0d10v5</text>
<text fill="#666600"  xml:space="preserve" font-size="7.0444" transform="translate(543.411, 280.064)" >1 x 2 / 0.5</text>
<text fill="#666600"  xml:space="preserve" font-size="7.0444" transform="translate(543.411, 271.597)" >nf=1</text>
<text fill="#222222"  xml:space="preserve" font-size="7.0444" transform="translate(518.405, 419.766)" >M13</text>
<text fill="#ff0000"  xml:space="preserve" font-size="5.2833" transform="translate(544.258, 450.341)" >D</text>
<text fill="#ff0000"  xml:space="preserve" font-size="5.2833" transform="translate(544.258, 420.574)" >S</text>
<text fill="#ff0000"  xml:space="preserve" font-size="5.2833" transform="translate(542.565, 431.714)" >B</text>
<text fill="#ff0000"  xml:space="preserve" font-size="5.2833" transform="translate(516.974, 431.714)" >G</text>
<text fill="#222222"  xml:space="preserve" font-size="7.0444" transform="translate(549.338, 426.08)" >pfet_g5v0d10v5</text>
<text fill="#666600"  xml:space="preserve" font-size="7.0444" transform="translate(550.185, 449.4)" >1 x 4 / 1</text>
<text fill="#666600"  xml:space="preserve" font-size="7.0444" transform="translate(550.185, 440.933)" >nf=1</text>
<text fill="#222222"  xml:space="preserve" font-size="7.0444" transform="translate(478.217, 419.766)" >M14</text>
<text fill="#ff0000"  xml:space="preserve" font-size="5.2833" transform="translate(462.363, 450.341)" >D</text>
<text fill="#ff0000"  xml:space="preserve" font-size="5.2833" transform="translate(462.363, 420.574)" >S</text>
<text fill="#ff0000"  xml:space="preserve" font-size="5.2833" transform="translate(464.057, 431.714)" >B</text>
<text fill="#ff0000"  xml:space="preserve" font-size="5.2833" transform="translate(489.647, 431.714)" >G</text>
<text fill="#222222"  xml:space="preserve" font-size="7.0444" transform="translate(408.283, 426.08)" >pfet_g5v0d10v5</text>
<text fill="#666600"  xml:space="preserve" font-size="7.0444" transform="translate(434.436, 449.4)" >1 x 4 / 1</text>
<text fill="#666600"  xml:space="preserve" font-size="7.0444" transform="translate(444.436, 440.933)" >nf=1</text>
<text fill="#222222"  xml:space="preserve" font-size="7.0444" transform="translate(478.217, 548.462)" >M17</text>
<text fill="#ff0000"  xml:space="preserve" font-size="5.2833" transform="translate(462.363, 579.037)" >S</text>
<text fill="#ff0000"  xml:space="preserve" font-size="5.2833" transform="translate(462.363, 549.27)" >D</text>
<text fill="#ff0000"  xml:space="preserve" font-size="5.2833" transform="translate(464.057, 560.41)" >B</text>
<text fill="#ff0000"  xml:space="preserve" font-size="5.2833" transform="translate(488.377, 560.41)" >G</text>
<text fill="#222222"  xml:space="preserve" font-size="7.0444" transform="translate(408.283, 554.776)" >nfet_g5v0d10v5</text>
<text fill="#666600"  xml:space="preserve" font-size="7.0444" transform="translate(428.436, 578.096)" >1 x 2 / 0.5</text>
<text fill="#666600"  xml:space="preserve" font-size="7.0444" transform="translate(444.436, 569.629)" >nf=1</text>
<text fill="#222222"  xml:space="preserve" font-size="7.0444" transform="translate(518.405, 548.462)" >M18</text>
<text fill="#ff0000"  xml:space="preserve" font-size="5.2833" transform="translate(544.258, 579.037)" >S</text>
<text fill="#ff0000"  xml:space="preserve" font-size="5.2833" transform="translate(544.258, 549.27)" >D</text>
<text fill="#ff0000"  xml:space="preserve" font-size="5.2833" transform="translate(542.565, 560.41)" >B</text>
<text fill="#ff0000"  xml:space="preserve" font-size="5.2833" transform="translate(518.244, 560.41)" >G</text>
<text fill="#222222"  xml:space="preserve" font-size="7.0444" transform="translate(549.338, 554.776)" >nfet_g5v0d10v5</text>
<text fill="#666600"  xml:space="preserve" font-size="7.0444" transform="translate(550.185, 578.096)" >1 x 2 / 0.5</text>
<text fill="#666600"  xml:space="preserve" font-size="7.0444" transform="translate(550.185, 569.629)" >nf=1</text>
<text fill="#222222"  xml:space="preserve" font-size="7.0444" transform="translate(518.405, 487.501)" >M15</text>
<text fill="#ff0000"  xml:space="preserve" font-size="5.2833" transform="translate(544.258, 518.076)" >D</text>
<text fill="#ff0000"  xml:space="preserve" font-size="5.2833" transform="translate(544.258, 488.309)" >S</text>
<text fill="#ff0000"  xml:space="preserve" font-size="5.2833" transform="translate(542.565, 499.449)" >B</text>
<text fill="#ff0000"  xml:space="preserve" font-size="5.2833" transform="translate(516.974, 499.449)" >G</text>
<text fill="#222222"  xml:space="preserve" font-size="7.0444" transform="translate(549.338, 493.815)" >pfet_g5v0d10v5</text>
<text fill="#666600"  xml:space="preserve" font-size="7.0444" transform="translate(550.185, 517.135)" >1 x 2 / 0.5</text>
<text fill="#666600"  xml:space="preserve" font-size="7.0444" transform="translate(550.185, 508.668)" >nf=1</text>
<text fill="#222222"  xml:space="preserve" font-size="7.0444" transform="translate(478.217, 487.501)" >M16</text>
<text fill="#ff0000"  xml:space="preserve" font-size="5.2833" transform="translate(462.363, 518.076)" >D</text>
<text fill="#ff0000"  xml:space="preserve" font-size="5.2833" transform="translate(462.363, 488.309)" >S</text>
<text fill="#ff0000"  xml:space="preserve" font-size="5.2833" transform="translate(464.057, 499.449)" >B</text>
<text fill="#ff0000"  xml:space="preserve" font-size="5.2833" transform="translate(489.647, 499.449)" >G</text>
<text fill="#222222"  xml:space="preserve" font-size="7.0444" transform="translate(408.283, 493.815)" >pfet_g5v0d10v5</text>
<text fill="#666600"  xml:space="preserve" font-size="7.0444" transform="translate(428.436, 517.135)" >1 x 2 / 0.5</text>
<text fill="#666600"  xml:space="preserve" font-size="7.0444" transform="translate(444.436, 508.668)" >nf=1</text>
<text fill="#222222"  xml:space="preserve" font-size="7.0444" transform="translate(308.427, 548.462)" >M19</text>
<text fill="#ff0000"  xml:space="preserve" font-size="5.2833" transform="translate(334.281, 579.037)" >S</text>
<text fill="#ff0000"  xml:space="preserve" font-size="5.2833" transform="translate(334.281, 549.27)" >D</text>
<text fill="#ff0000"  xml:space="preserve" font-size="5.2833" transform="translate(332.587, 560.41)" >B</text>
<text fill="#ff0000"  xml:space="preserve" font-size="5.2833" transform="translate(308.267, 560.41)" >G</text>
<text fill="#222222"  xml:space="preserve" font-size="7.0444" transform="translate(339.361, 554.776)" >nfet_g5v0d10v5</text>
<text fill="#666600"  xml:space="preserve" font-size="7.0444" transform="translate(340.207, 578.096)" >1 x 4 / 1</text>
<text fill="#666600"  xml:space="preserve" font-size="7.0444" transform="translate(340.207, 569.629)" >nf=1</text>
<text fill="#222222"  xml:space="preserve" font-size="7.0444" transform="translate(239.692, 494.274)" >M20</text>
<text fill="#ff0000"  xml:space="preserve" font-size="5.2833" transform="translate(266.546, 524.849)" >S</text>
<text fill="#ff0000"  xml:space="preserve" font-size="5.2833" transform="translate(266.546, 495.082)" >D</text>
<text fill="#ff0000"  xml:space="preserve" font-size="5.2833" transform="translate(264.853, 506.222)" >B</text>
<text fill="#ff0000"  xml:space="preserve" font-size="5.2833" transform="translate(240.532, 506.222)" >G</text>
<text fill="#222222"  xml:space="preserve" font-size="7.0444" transform="translate(271.626, 500.588)" >nfet_g5v0d10v5</text>
<text fill="#666600"  xml:space="preserve" font-size="7.0444" transform="translate(272.473, 523.908)" >1 x 2 / 1</text>
<text fill="#666600"  xml:space="preserve" font-size="7.0444" transform="translate(272.473, 515.441)" >nf=1</text>
<text fill="#222222"  xml:space="preserve" font-size="7.0444" transform="translate(376.615, 494.274)" >M21</text>
<text fill="#ff0000"  xml:space="preserve" font-size="5.2833" transform="translate(360.761, 524.849)" >S</text>
<text fill="#ff0000"  xml:space="preserve" font-size="5.2833" transform="translate(360.761, 495.082)" >D</text>
<text fill="#ff0000"  xml:space="preserve" font-size="5.2833" transform="translate(362.455, 506.222)" >B</text>
<text fill="#ff0000"  xml:space="preserve" font-size="5.2833" transform="translate(386.775, 506.222)" >G</text>
<text fill="#222222"  xml:space="preserve" font-size="7.0444" transform="translate(306.681, 500.588)" >nfet_g5v0d10v5</text>
<text fill="#666600"  xml:space="preserve" font-size="7.0444" transform="translate(332.834, 523.908)" >1 x 2 / 1</text>
<text fill="#666600"  xml:space="preserve" font-size="7.0444" transform="translate(342.834, 515.441)" >nf=1</text>
<text fill="#222222"  xml:space="preserve" font-size="7.0444" transform="translate(701.288, 142.054)" >M22</text>
<text fill="#ff0000"  xml:space="preserve" font-size="5.2833" transform="translate(727.142, 172.629)" >D</text>
<text fill="#ff0000"  xml:space="preserve" font-size="5.2833" transform="translate(727.142, 142.862)" >S</text>
<text fill="#ff0000"  xml:space="preserve" font-size="5.2833" transform="translate(725.448, 154.002)" >B</text>
<text fill="#ff0000"  xml:space="preserve" font-size="5.2833" transform="translate(699.858, 154.002)" >G</text>
<text fill="#222222"  xml:space="preserve" font-size="7.0444" transform="translate(732.222, 148.368)" >pfet_g5v0d10v5</text>
<text fill="#666600"  xml:space="preserve" font-size="7.0444" transform="translate(733.068, 171.688)" >1 x 50 / 0.5</text>
<text fill="#666600"  xml:space="preserve" font-size="7.0444" transform="translate(733.068, 163.221)" >nf=1</text>
<text fill="#222222"  xml:space="preserve" font-size="7.0444" transform="translate(701.288, 236.883)" >M23</text>
<text fill="#ff0000"  xml:space="preserve" font-size="5.2833" transform="translate(727.142, 267.458)" >S</text>
<text fill="#ff0000"  xml:space="preserve" font-size="5.2833" transform="translate(727.142, 237.691)" >D</text>
<text fill="#ff0000"  xml:space="preserve" font-size="5.2833" transform="translate(725.448, 248.831)" >B</text>
<text fill="#ff0000"  xml:space="preserve" font-size="5.2833" transform="translate(701.128, 248.831)" >G</text>
<text fill="#222222"  xml:space="preserve" font-size="7.0444" transform="translate(732.222, 243.196)" >nfet_g5v0d10v5</text>
<text fill="#666600"  xml:space="preserve" font-size="7.0444" transform="translate(733.068, 266.517)" >1 x 10 / 0.5</text>
<text fill="#666600"  xml:space="preserve" font-size="7.0444" transform="translate(733.068, 258.05)" >nf=1</text>
<text fill="#ff0000"  xml:space="preserve" font-size="5.2833" transform="translate(74.5824, 172.629)" >B</text>
<text fill="#222222"  xml:space="preserve" font-size="7.0444" transform="translate(98.9028, 164.068)" >R3</text>
<text fill="#666600"  xml:space="preserve" font-size="7.0444" transform="translate(98.9028, 192.009)" >1 * 1 / 1</text>
<text fill="#222222"  xml:space="preserve" font-size="7.0444" transform="translate(98.9028, 173.382)" >res_generic_nd__hv</text>
<text fill="#666600"  xml:space="preserve" font-size="7.0444" transform="translate(98.9028, 182.695)" >R=114</text>
<text fill="#ff0000"  xml:space="preserve" font-size="5.2833" transform="translate(650.327, 375.833)" >B</text>
<text fill="#222222"  xml:space="preserve" font-size="7.0444" transform="translate(674.647, 367.272)" >R1</text>
<text fill="#666600"  xml:space="preserve" font-size="7.0444" transform="translate(674.647, 395.212)" >1 * 1 / 1</text>
<text fill="#222222"  xml:space="preserve" font-size="7.0444" transform="translate(674.647, 376.585)" >res_generic_nd__hv</text>
<text fill="#666600"  xml:space="preserve" font-size="7.0444" transform="translate(674.647, 385.899)" >R=114</text>
<text fill="#ff0000"  xml:space="preserve" font-size="5.2833" transform="translate(650.327, 430.021)" >B</text>
<text fill="#222222"  xml:space="preserve" font-size="7.0444" transform="translate(674.647, 421.46)" >R2</text>
<text fill="#666600"  xml:space="preserve" font-size="7.0444" transform="translate(674.647, 449.4)" >1 * 1 / 1</text>
<text fill="#222222"  xml:space="preserve" font-size="7.0444" transform="translate(674.647, 430.773)" >res_generic_nd__hv</text>
<text fill="#666600"  xml:space="preserve" font-size="7.0444" transform="translate(674.647, 440.087)" >R=114</text>
<text fill="#222222"  xml:space="preserve" font-size="7.0444" transform="translate(815.437, 142.054)" >M24</text>
<text fill="#ff0000"  xml:space="preserve" font-size="5.2833" transform="translate(842.29, 172.629)" >D</text>
<text fill="#ff0000"  xml:space="preserve" font-size="5.2833" transform="translate(842.29, 142.862)" >S</text>
<text fill="#ff0000"  xml:space="preserve" font-size="5.2833" transform="translate(840.597, 154.002)" >B</text>
<text fill="#ff0000"  xml:space="preserve" font-size="5.2833" transform="translate(815.007, 154.002)" >G</text>
<text fill="#222222"  xml:space="preserve" font-size="7.0444" transform="translate(847.371, 148.368)" >pfet_g5v0d10v5</text>
<text fill="#666600"  xml:space="preserve" font-size="7.0444" transform="translate(848.217, 171.688)" >1 x 50 / 0.5</text>
<text fill="#666600"  xml:space="preserve" font-size="7.0444" transform="translate(848.217, 163.221)" >nf=1</text>
<text fill="#222222"  xml:space="preserve" font-size="7.0444" transform="translate(816.437, 236.883)" >M25</text>
<text fill="#ff0000"  xml:space="preserve" font-size="5.2833" transform="translate(842.29, 267.458)" >S</text>
<text fill="#ff0000"  xml:space="preserve" font-size="5.2833" transform="translate(842.29, 237.691)" >D</text>
<text fill="#ff0000"  xml:space="preserve" font-size="5.2833" transform="translate(840.597, 248.831)" >B</text>
<text fill="#ff0000"  xml:space="preserve" font-size="5.2833" transform="translate(816.277, 248.831)" >G</text>
<text fill="#222222"  xml:space="preserve" font-size="7.0444" transform="translate(847.371, 243.196)" >nfet_g5v0d10v5</text>
<text fill="#666600"  xml:space="preserve" font-size="7.0444" transform="translate(848.217, 266.517)" >1 x 10 / 0.5</text>
<text fill="#666600"  xml:space="preserve" font-size="7.0444" transform="translate(848.217, 258.05)" >nf=1</text>
<text fill="#222222"  xml:space="preserve" font-size="7.0444" transform="translate(923.812, 142.054)" >M26</text>
<text fill="#ff0000"  xml:space="preserve" font-size="5.2833" transform="translate(950.666, 172.629)" >D</text>
<text fill="#ff0000"  xml:space="preserve" font-size="5.2833" transform="translate(950.666, 142.862)" >S</text>
<text fill="#ff0000"  xml:space="preserve" font-size="5.2833" transform="translate(948.973, 154.002)" >B</text>
<text fill="#ff0000"  xml:space="preserve" font-size="5.2833" transform="translate(923.382, 154.002)" >G</text>
<text fill="#222222"  xml:space="preserve" font-size="7.0444" transform="translate(955.746, 148.368)" >pfet_g5v0d10v5</text>
<text fill="#666600"  xml:space="preserve" font-size="7.0444" transform="translate(956.593, 171.688)" >1 x 50 / 0.5</text>
<text fill="#666600"  xml:space="preserve" font-size="7.0444" transform="translate(956.593, 163.221)" >nf=1</text>
<text fill="#222222"  xml:space="preserve" font-size="7.0444" transform="translate(924.812, 236.883)" >M27</text>
<text fill="#ff0000"  xml:space="preserve" font-size="5.2833" transform="translate(950.666, 267.458)" >S</text>
<text fill="#ff0000"  xml:space="preserve" font-size="5.2833" transform="translate(950.666, 237.691)" >D</text>
<text fill="#ff0000"  xml:space="preserve" font-size="5.2833" transform="translate(948.973, 248.831)" >B</text>
<text fill="#ff0000"  xml:space="preserve" font-size="5.2833" transform="translate(924.652, 248.831)" >G</text>
<text fill="#222222"  xml:space="preserve" font-size="7.0444" transform="translate(955.746, 243.196)" >nfet_g5v0d10v5</text>
<text fill="#666600"  xml:space="preserve" font-size="7.0444" transform="translate(956.593, 266.517)" >1 x 10 / 0.5</text>
<text fill="#666600"  xml:space="preserve" font-size="7.0444" transform="translate(956.593, 258.05)" >nf=1</text>
<text fill="#222222"  xml:space="preserve" font-size="7.0444" transform="translate(1039.96, 148.828)" >M28</text>
<text fill="#ff0000"  xml:space="preserve" font-size="5.2833" transform="translate(1065.81, 179.403)" >D</text>
<text fill="#ff0000"  xml:space="preserve" font-size="5.2833" transform="translate(1065.81, 149.636)" >S</text>
<text fill="#ff0000"  xml:space="preserve" font-size="5.2833" transform="translate(1064.12, 160.776)" >B</text>
<text fill="#ff0000"  xml:space="preserve" font-size="5.2833" transform="translate(1038.53, 160.776)" >G</text>
<text fill="#222222"  xml:space="preserve" font-size="7.0444" transform="translate(1070.89, 155.141)" >pfet_g5v0d10v5</text>
<text fill="#666600"  xml:space="preserve" font-size="7.0444" transform="translate(1071.74, 178.462)" >1 x 50 / 0.5</text>
<text fill="#666600"  xml:space="preserve" font-size="7.0444" transform="translate(1071.74, 169.995)" >nf=1</text>
<text fill="#222222"  xml:space="preserve" font-size="7.0444" transform="translate(1039.96, 243.656)" >M29</text>
<text fill="#ff0000"  xml:space="preserve" font-size="5.2833" transform="translate(1065.81, 274.231)" >S</text>
<text fill="#ff0000"  xml:space="preserve" font-size="5.2833" transform="translate(1065.81, 244.464)" >D</text>
<text fill="#ff0000"  xml:space="preserve" font-size="5.2833" transform="translate(1064.12, 255.604)" >B</text>
<text fill="#ff0000"  xml:space="preserve" font-size="5.2833" transform="translate(1039.8, 255.604)" >G</text>
<text fill="#222222"  xml:space="preserve" font-size="7.0444" transform="translate(1070.89, 249.97)" >nfet_g5v0d10v5</text>
<text fill="#666600"  xml:space="preserve" font-size="7.0444" transform="translate(1071.74, 273.29)" >1 x 10 / 0.5</text>
<text fill="#666600"  xml:space="preserve" font-size="7.0444" transform="translate(1071.74, 264.823)" >nf=1</text>
<path class="l4" d="M88.7426 108.564L88.7426 117.031"/>
<path class="l4" d="M88.7426 140.738L88.7426 149.205"/>
<path class="l4" d="M88.7426 140.738L97.2094 140.738"/>
<path class="l4" d="M88.7426 117.031L93.8227 117.031"/>
<path class="l4" d="M110.756 128.884L115.836 128.884"/>
<path class="l4" d="M97.2094 113.644L97.2094 144.125"/>
<path class="l4" d="M93.8227 115.338L97.2094 117.031L93.8227 118.724L93.8227 115.338"/>
<path class="l4" style="fill:none;" d="M103.983 139.045L103.983 118.724L100.596 118.724L100.596 139.045L103.983 139.045"/>
<circle class="l4" cx="107.37" cy="128.884" r="3.38673" style="fill:none;"/>
<path class="l4" d="M170.024 108.564L170.024 117.031"/>
<path class="l4" d="M170.024 140.738L170.024 149.205"/>
<path class="l4" d="M161.557 140.738L170.024 140.738"/>
<path class="l4" d="M164.944 117.031L170.024 117.031"/>
<path class="l4" d="M142.93 128.884L148.01 128.884"/>
<path class="l4" d="M161.557 113.644L161.557 144.125"/>
<path class="l4" d="M164.944 115.338L161.557 117.031L164.944 118.724L164.944 115.338"/>
<path class="l4" style="fill:none;" d="M154.784 139.045L154.784 118.724L158.171 118.724L158.171 139.045L154.784 139.045"/>
<circle class="l4" cx="151.397" cy="128.884" r="3.38673" style="fill:none;"/>
<path class="l4" d="M170.024 210.166L170.024 218.633"/>
<path class="l4" d="M170.024 242.34L170.024 250.807"/>
<path class="l4" d="M170.024 218.633L178.491 218.633"/>
<path class="l4" d="M173.411 242.34L178.491 242.34"/>
<path class="l4" d="M178.491 215.246L178.491 245.727"/>
<path class="l4" d="M185.264 230.486L197.118 230.486"/>
<path class="l4" d="M173.411 240.647L170.024 242.34L173.411 244.033L173.411 240.647"/>
<path class="l4" style="fill:none;" d="M185.264 240.647L185.264 220.326L181.878 220.326L181.878 240.647L185.264 240.647"/>
<path class="l4" d="M332.587 115.338L332.587 123.804"/>
<path class="l4" d="M332.587 147.511L332.587 155.978"/>
<path class="l4" d="M324.12 147.511L332.587 147.511"/>
<path class="l4" d="M327.507 123.804L332.587 123.804"/>
<path class="l4" d="M305.493 135.658L310.574 135.658"/>
<path class="l4" d="M324.12 120.418L324.12 150.898"/>
<path class="l4" d="M327.507 122.111L324.12 123.804L327.507 125.498L327.507 122.111"/>
<path class="l4" style="fill:none;" d="M317.347 145.818L317.347 125.498L320.734 125.498L320.734 145.818L317.347 145.818"/>
<circle class="l4" cx="313.96" cy="135.658" r="3.38673" style="fill:none;"/>
<path class="l4" d="M278.4 169.525L278.4 177.992"/>
<path class="l4" d="M278.4 201.699L278.4 210.166"/>
<path class="l4" d="M269.933 201.699L278.4 201.699"/>
<path class="l4" d="M273.32 177.992L278.4 177.992"/>
<path class="l4" d="M251.306 189.846L256.386 189.846"/>
<path class="l4" d="M269.933 174.605L269.933 205.086"/>
<path class="l4" d="M273.32 176.299L269.933 177.992L273.32 179.685L273.32 176.299"/>
<path class="l4" style="fill:none;" d="M263.159 200.006L263.159 179.685L266.546 179.685L266.546 200.006L263.159 200.006"/>
<circle class="l4" cx="259.773" cy="189.846" r="3.38673" style="fill:none;"/>
<path class="l4" d="M380.002 169.525L380.002 177.992"/>
<path class="l4" d="M380.002 201.699L380.002 210.166"/>
<path class="l4" d="M380.002 201.699L388.468 201.699"/>
<path class="l4" d="M380.002 177.992L385.082 177.992"/>
<path class="l4" d="M402.015 189.846L407.095 189.846"/>
<path class="l4" d="M388.468 174.605L388.468 205.086"/>
<path class="l4" d="M385.082 176.299L388.468 177.992L385.082 179.685L385.082 176.299"/>
<path class="l4" style="fill:none;" d="M395.242 200.006L395.242 179.685L391.855 179.685L391.855 200.006L395.242 200.006"/>
<circle class="l4" cx="398.629" cy="189.846" r="3.38673" style="fill:none;"/>
<path class="l4" d="M535.791 115.338L535.791 123.804"/>
<path class="l4" d="M535.791 147.511L535.791 155.978"/>
<path class="l4" d="M527.324 147.511L535.791 147.511"/>
<path class="l4" d="M530.711 123.804L535.791 123.804"/>
<path class="l4" d="M508.697 135.658L513.777 135.658"/>
<path class="l4" d="M527.324 120.418L527.324 150.898"/>
<path class="l4" d="M530.711 122.111L527.324 123.804L530.711 125.498L530.711 122.111"/>
<path class="l4" style="fill:none;" d="M520.551 145.818L520.551 125.498L523.938 125.498L523.938 145.818L520.551 145.818"/>
<circle class="l4" cx="517.164" cy="135.658" r="3.38673" style="fill:none;"/>
<path class="l4" d="M461.283 115.338L461.283 123.804"/>
<path class="l4" d="M461.283 147.511L461.283 155.978"/>
<path class="l4" d="M461.283 147.511L469.75 147.511"/>
<path class="l4" d="M461.283 123.804L466.363 123.804"/>
<path class="l4" d="M483.297 135.658L488.377 135.658"/>
<path class="l4" d="M469.75 120.418L469.75 150.898"/>
<path class="l4" d="M466.363 122.111L469.75 123.804L466.363 125.498L466.363 122.111"/>
<path class="l4" style="fill:none;" d="M476.523 145.818L476.523 125.498L473.137 125.498L473.137 145.818L476.523 145.818"/>
<circle class="l4" cx="479.91" cy="135.658" r="3.38673" style="fill:none;"/>
<path class="l4" d="M461.283 183.072L461.283 191.539"/>
<path class="l4" d="M461.283 215.246L461.283 223.713"/>
<path class="l4" d="M461.283 191.539L469.75 191.539"/>
<path class="l4" d="M464.67 215.246L469.75 215.246"/>
<path class="l4" d="M469.75 188.152L469.75 218.633"/>
<path class="l4" d="M476.523 203.393L488.377 203.393"/>
<path class="l4" d="M464.67 213.553L461.283 215.246L464.67 216.94L464.67 213.553"/>
<path class="l4" style="fill:none;" d="M476.523 213.553L476.523 193.232L473.137 193.232L473.137 213.553L476.523 213.553"/>
<path class="l4" d="M535.791 183.072L535.791 191.539"/>
<path class="l4" d="M535.791 215.246L535.791 223.713"/>
<path class="l4" d="M527.324 191.539L535.791 191.539"/>
<path class="l4" d="M527.324 215.246L532.405 215.246"/>
<path class="l4" d="M527.324 188.152L527.324 218.633"/>
<path class="l4" d="M508.697 203.393L520.551 203.393"/>
<path class="l4" d="M532.405 213.553L535.791 215.246L532.405 216.94L532.405 213.553"/>
<path class="l4" style="fill:none;" d="M520.551 213.553L520.551 193.232L523.938 193.232L523.938 213.553L520.551 213.553"/>
<path class="l4" d="M461.283 244.033L461.283 252.5"/>
<path class="l4" d="M461.283 276.207L461.283 284.674"/>
<path class="l4" d="M461.283 252.5L469.75 252.5"/>
<path class="l4" d="M464.67 276.207L469.75 276.207"/>
<path class="l4" d="M469.75 249.113L469.75 279.594"/>
<path class="l4" d="M476.523 264.354L488.377 264.354"/>
<path class="l4" d="M464.67 274.514L461.283 276.207L464.67 277.901L464.67 274.514"/>
<path class="l4" style="fill:none;" d="M476.523 274.514L476.523 254.194L473.137 254.194L473.137 274.514L476.523 274.514"/>
<path class="l4" d="M535.791 244.033L535.791 252.5"/>
<path class="l4" d="M535.791 276.207L535.791 284.674"/>
<path class="l4" d="M527.324 252.5L535.791 252.5"/>
<path class="l4" d="M527.324 276.207L532.405 276.207"/>
<path class="l4" d="M527.324 249.113L527.324 279.594"/>
<path class="l4" d="M508.697 264.354L520.551 264.354"/>
<path class="l4" d="M532.405 274.514L535.791 276.207L532.405 277.901L532.405 274.514"/>
<path class="l4" style="fill:none;" d="M520.551 274.514L520.551 254.194L523.938 254.194L523.938 274.514L520.551 274.514"/>
<path class="l4" d="M542.565 413.37L542.565 421.837"/>
<path class="l4" d="M542.565 445.544L542.565 454.011"/>
<path class="l4" d="M534.098 445.544L542.565 445.544"/>
<path class="l4" d="M537.485 421.837L542.565 421.837"/>
<path class="l4" d="M515.471 433.69L520.551 433.69"/>
<path class="l4" d="M534.098 418.45L534.098 448.931"/>
<path class="l4" d="M537.485 420.143L534.098 421.837L537.485 423.53L537.485 420.143"/>
<path class="l4" style="fill:none;" d="M527.324 443.851L527.324 423.53L530.711 423.53L530.711 443.851L527.324 443.851"/>
<circle class="l4" cx="523.938" cy="433.69" r="3.38673" style="fill:none;"/>
<path class="l4" d="M468.057 413.37L468.057 421.837"/>
<path class="l4" d="M468.057 445.544L468.057 454.011"/>
<path class="l4" d="M468.057 445.544L476.523 445.544"/>
<path class="l4" d="M468.057 421.837L473.137 421.837"/>
<path class="l4" d="M490.07 433.69L495.15 433.69"/>
<path class="l4" d="M476.523 418.45L476.523 448.931"/>
<path class="l4" d="M473.137 420.143L476.523 421.837L473.137 423.53L473.137 420.143"/>
<path class="l4" style="fill:none;" d="M483.297 443.851L483.297 423.53L479.91 423.53L479.91 443.851L483.297 443.851"/>
<circle class="l4" cx="486.684" cy="433.69" r="3.38673" style="fill:none;"/>
<path class="l4" d="M468.057 542.066L468.057 550.533"/>
<path class="l4" d="M468.057 574.24L468.057 582.707"/>
<path class="l4" d="M468.057 550.533L476.523 550.533"/>
<path class="l4" d="M471.443 574.24L476.523 574.24"/>
<path class="l4" d="M476.523 547.146L476.523 577.626"/>
<path class="l4" d="M483.297 562.386L495.15 562.386"/>
<path class="l4" d="M471.443 572.546L468.057 574.24L471.443 575.933L471.443 572.546"/>
<path class="l4" style="fill:none;" d="M483.297 572.546L483.297 552.226L479.91 552.226L479.91 572.546L483.297 572.546"/>
<path class="l4" d="M542.565 542.066L542.565 550.533"/>
<path class="l4" d="M542.565 574.24L542.565 582.707"/>
<path class="l4" d="M534.098 550.533L542.565 550.533"/>
<path class="l4" d="M534.098 574.24L539.178 574.24"/>
<path class="l4" d="M534.098 547.146L534.098 577.626"/>
<path class="l4" d="M515.471 562.386L527.324 562.386"/>
<path class="l4" d="M539.178 572.546L542.565 574.24L539.178 575.933L539.178 572.546"/>
<path class="l4" style="fill:none;" d="M527.324 572.546L527.324 552.226L530.711 552.226L530.711 572.546L527.324 572.546"/>
<path class="l4" d="M542.565 481.105L542.565 489.571"/>
<path class="l4" d="M542.565 513.279L542.565 521.745"/>
<path class="l4" d="M534.098 513.279L542.565 513.279"/>
<path class="l4" d="M537.485 489.571L542.565 489.571"/>
<path class="l4" d="M515.471 501.425L520.551 501.425"/>
<path class="l4" d="M534.098 486.185L534.098 516.665"/>
<path class="l4" d="M537.485 487.878L534.098 489.571L537.485 491.265L537.485 487.878"/>
<path class="l4" style="fill:none;" d="M527.324 511.585L527.324 491.265L530.711 491.265L530.711 511.585L527.324 511.585"/>
<circle class="l4" cx="523.938" cy="501.425" r="3.38673" style="fill:none;"/>
<path class="l4" d="M468.057 481.105L468.057 489.571"/>
<path class="l4" d="M468.057 513.279L468.057 521.745"/>
<path class="l4" d="M468.057 513.279L476.523 513.279"/>
<path class="l4" d="M468.057 489.571L473.137 489.571"/>
<path class="l4" d="M490.07 501.425L495.15 501.425"/>
<path class="l4" d="M476.523 486.185L476.523 516.665"/>
<path class="l4" d="M473.137 487.878L476.523 489.571L473.137 491.265L473.137 487.878"/>
<path class="l4" style="fill:none;" d="M483.297 511.585L483.297 491.265L479.91 491.265L479.91 511.585L483.297 511.585"/>
<circle class="l4" cx="486.684" cy="501.425" r="3.38673" style="fill:none;"/>
<path class="l4" d="M332.587 542.066L332.587 550.533"/>
<path class="l4" d="M332.587 574.24L332.587 582.707"/>
<path class="l4" d="M324.12 550.533L332.587 550.533"/>
<path class="l4" d="M324.12 574.24L329.201 574.24"/>
<path class="l4" d="M324.12 547.146L324.12 577.626"/>
<path class="l4" d="M305.493 562.386L317.347 562.386"/>
<path class="l4" d="M329.201 572.546L332.587 574.24L329.201 575.933L329.201 572.546"/>
<path class="l4" style="fill:none;" d="M317.347 572.546L317.347 552.226L320.734 552.226L320.734 572.546L317.347 572.546"/>
<path class="l4" d="M264.853 487.878L264.853 496.345"/>
<path class="l4" d="M264.853 520.052L264.853 528.519"/>
<path class="l4" d="M256.386 496.345L264.853 496.345"/>
<path class="l4" d="M256.386 520.052L261.466 520.052"/>
<path class="l4" d="M256.386 492.958L256.386 523.439"/>
<path class="l4" d="M237.759 508.198L249.612 508.198"/>
<path class="l4" d="M261.466 518.359L264.853 520.052L261.466 521.745L261.466 518.359"/>
<path class="l4" style="fill:none;" d="M249.612 518.359L249.612 498.038L252.999 498.038L252.999 518.359L249.612 518.359"/>
<path class="l4" d="M366.455 487.878L366.455 496.345"/>
<path class="l4" d="M366.455 520.052L366.455 528.519"/>
<path class="l4" d="M366.455 496.345L374.921 496.345"/>
<path class="l4" d="M369.841 520.052L374.921 520.052"/>
<path class="l4" d="M374.921 492.958L374.921 523.439"/>
<path class="l4" d="M381.695 508.198L393.548 508.198"/>
<path class="l4" d="M369.841 518.359L366.455 520.052L369.841 521.745L369.841 518.359"/>
<path class="l4" style="fill:none;" d="M381.695 518.359L381.695 498.038L378.308 498.038L378.308 518.359L381.695 518.359"/>
<path class="l4" d="M725.448 135.658L725.448 144.125"/>
<path class="l4" d="M725.448 167.832L725.448 176.299"/>
<path class="l4" d="M716.981 167.832L725.448 167.832"/>
<path class="l4" d="M720.368 144.125L725.448 144.125"/>
<path class="l4" d="M698.354 155.978L703.434 155.978"/>
<path class="l4" d="M716.981 140.738L716.981 171.219"/>
<path class="l4" d="M720.368 142.431L716.981 144.125L720.368 145.818L720.368 142.431"/>
<path class="l4" style="fill:none;" d="M710.208 166.139L710.208 145.818L713.595 145.818L713.595 166.139L710.208 166.139"/>
<circle class="l4" cx="706.821" cy="155.978" r="3.38673" style="fill:none;"/>
<path class="l4" d="M725.448 230.486L725.448 238.953"/>
<path class="l4" d="M725.448 262.66L725.448 271.127"/>
<path class="l4" d="M716.981 238.953L725.448 238.953"/>
<path class="l4" d="M716.981 262.66L722.062 262.66"/>
<path class="l4" d="M716.981 235.567L716.981 266.047"/>
<path class="l4" d="M698.354 250.807L710.208 250.807"/>
<path class="l4" d="M722.062 260.967L725.448 262.66L722.062 264.354L722.062 260.967"/>
<path class="l4" style="fill:none;" d="M710.208 260.967L710.208 240.647L713.595 240.647L713.595 260.967L710.208 260.967"/>
<path class="l4" d="M88.7426 189.846L88.7426 196.619"/>
<path class="l4" d="M88.7426 189.846L93.8227 188.152"/>
<path class="l4" d="M83.6625 184.766L93.8227 188.152"/>
<path class="l4" d="M83.6625 184.766L93.8227 181.379"/>
<path class="l4" d="M83.6625 177.992L93.8227 181.379"/>
<path class="l4" d="M83.6625 177.992L93.8227 174.605"/>
<path class="l4" d="M83.6625 171.219L93.8227 174.605"/>
<path class="l4" d="M83.6625 171.219L93.8227 167.832"/>
<path class="l4" d="M83.6625 164.445L93.8227 167.832"/>
<path class="l4" d="M83.6625 164.445L88.7426 162.752"/>
<path class="l4" d="M88.7426 155.978L88.7426 162.752"/>
<path class="l4" d="M82.8158 157.672L82.8158 164.445"/>
<path class="l4" d="M82.8158 188.152L82.8158 194.926"/>
<path class="l4" d="M78.5824 191.539L80.2758 191.539"/>
<path class="l4" d="M78.5824 161.058L78.5824 191.539"/>
<path class="l4" d="M78.5824 161.058L80.2758 161.058"/>
<path class="l4" d="M75.1957 176.299L78.5824 176.299"/>
<path class="l4" d="M82.8158 191.539L88.7426 191.539"/>
<path class="l4" d="M82.8158 161.058L88.7426 161.058"/>
<path class="l4" style="fill:none;" d="M80.2758 159.365L80.2758 162.752L82.8158 161.058L80.2758 159.365"/>
<path class="l4" style="fill:none;" d="M80.2758 189.846L80.2758 193.232L82.8158 191.539L80.2758 189.846"/>
<path class="l4" d="M664.487 393.05L664.487 399.823"/>
<path class="l4" d="M664.487 393.05L669.567 391.356"/>
<path class="l4" d="M659.407 387.969L669.567 391.356"/>
<path class="l4" d="M659.407 387.969L669.567 384.583"/>
<path class="l4" d="M659.407 381.196L669.567 384.583"/>
<path class="l4" d="M659.407 381.196L669.567 377.809"/>
<path class="l4" d="M659.407 374.423L669.567 377.809"/>
<path class="l4" d="M659.407 374.423L669.567 371.036"/>
<path class="l4" d="M659.407 367.649L669.567 371.036"/>
<path class="l4" d="M659.407 367.649L664.487 365.956"/>
<path class="l4" d="M664.487 359.182L664.487 365.956"/>
<path class="l4" d="M658.56 360.876L658.56 367.649"/>
<path class="l4" d="M658.56 391.356L658.56 398.13"/>
<path class="l4" d="M654.327 394.743L656.02 394.743"/>
<path class="l4" d="M654.327 364.262L654.327 394.743"/>
<path class="l4" d="M654.327 364.262L656.02 364.262"/>
<path class="l4" d="M650.94 379.503L654.327 379.503"/>
<path class="l4" d="M658.56 394.743L664.487 394.743"/>
<path class="l4" d="M658.56 364.262L664.487 364.262"/>
<path class="l4" style="fill:none;" d="M656.02 362.569L656.02 365.956L658.56 364.262L656.02 362.569"/>
<path class="l4" style="fill:none;" d="M656.02 393.05L656.02 396.436L658.56 394.743L656.02 393.05"/>
<path class="l4" d="M664.487 447.237L664.487 454.011"/>
<path class="l4" d="M664.487 447.237L669.567 445.544"/>
<path class="l4" d="M659.407 442.157L669.567 445.544"/>
<path class="l4" d="M659.407 442.157L669.567 438.77"/>
<path class="l4" d="M659.407 435.384L669.567 438.77"/>
<path class="l4" d="M659.407 435.384L669.567 431.997"/>
<path class="l4" d="M659.407 428.61L669.567 431.997"/>
<path class="l4" d="M659.407 428.61L669.567 425.224"/>
<path class="l4" d="M659.407 421.837L669.567 425.224"/>
<path class="l4" d="M659.407 421.837L664.487 420.143"/>
<path class="l4" d="M664.487 413.37L664.487 420.143"/>
<path class="l4" d="M658.56 415.063L658.56 421.837"/>
<path class="l4" d="M658.56 445.544L658.56 452.317"/>
<path class="l4" d="M654.327 448.931L656.02 448.931"/>
<path class="l4" d="M654.327 418.45L654.327 448.931"/>
<path class="l4" d="M654.327 418.45L656.02 418.45"/>
<path class="l4" d="M650.94 433.69L654.327 433.69"/>
<path class="l4" d="M658.56 448.931L664.487 448.931"/>
<path class="l4" d="M658.56 418.45L664.487 418.45"/>
<path class="l4" style="fill:none;" d="M656.02 416.757L656.02 420.143L658.56 418.45L656.02 416.757"/>
<path class="l4" style="fill:none;" d="M656.02 447.237L656.02 450.624L658.56 448.931L656.02 447.237"/>
<path class="l4" d="M840.597 135.658L840.597 144.125"/>
<path class="l4" d="M840.597 167.832L840.597 176.299"/>
<path class="l4" d="M832.13 167.832L840.597 167.832"/>
<path class="l4" d="M835.517 144.125L840.597 144.125"/>
<path class="l4" d="M813.503 155.978L818.583 155.978"/>
<path class="l4" d="M832.13 140.738L832.13 171.219"/>
<path class="l4" d="M835.517 142.431L832.13 144.125L835.517 145.818L835.517 142.431"/>
<path class="l4" style="fill:none;" d="M825.357 166.139L825.357 145.818L828.744 145.818L828.744 166.139L825.357 166.139"/>
<circle class="l4" cx="821.97" cy="155.978" r="3.38673" style="fill:none;"/>
<path class="l4" d="M840.597 230.486L840.597 238.953"/>
<path class="l4" d="M840.597 262.66L840.597 271.127"/>
<path class="l4" d="M832.13 238.953L840.597 238.953"/>
<path class="l4" d="M832.13 262.66L837.21 262.66"/>
<path class="l4" d="M832.13 235.567L832.13 266.047"/>
<path class="l4" d="M813.503 250.807L825.357 250.807"/>
<path class="l4" d="M837.21 260.967L840.597 262.66L837.21 264.354L837.21 260.967"/>
<path class="l4" style="fill:none;" d="M825.357 260.967L825.357 240.647L828.744 240.647L828.744 260.967L825.357 260.967"/>
<path class="l4" d="M948.973 135.658L948.973 144.125"/>
<path class="l4" d="M948.973 167.832L948.973 176.299"/>
<path class="l4" d="M940.506 167.832L948.973 167.832"/>
<path class="l4" d="M943.892 144.125L948.973 144.125"/>
<path class="l4" d="M921.879 155.978L926.959 155.978"/>
<path class="l4" d="M940.506 140.738L940.506 171.219"/>
<path class="l4" d="M943.892 142.431L940.506 144.125L943.892 145.818L943.892 142.431"/>
<path class="l4" style="fill:none;" d="M933.732 166.139L933.732 145.818L937.119 145.818L937.119 166.139L933.732 166.139"/>
<circle class="l4" cx="930.346" cy="155.978" r="3.38673" style="fill:none;"/>
<path class="l4" d="M948.973 230.486L948.973 238.953"/>
<path class="l4" d="M948.973 262.66L948.973 271.127"/>
<path class="l4" d="M940.506 238.953L948.973 238.953"/>
<path class="l4" d="M940.506 262.66L945.586 262.66"/>
<path class="l4" d="M940.506 235.567L940.506 266.047"/>
<path class="l4" d="M921.879 250.807L933.732 250.807"/>
<path class="l4" d="M945.586 260.967L948.973 262.66L945.586 264.354L945.586 260.967"/>
<path class="l4" style="fill:none;" d="M933.732 260.967L933.732 240.647L937.119 240.647L937.119 260.967L933.732 260.967"/>
<path class="l4" d="M1064.12 142.431L1064.12 150.898"/>
<path class="l4" d="M1064.12 174.605L1064.12 183.072"/>
<path class="l4" d="M1055.65 174.605L1064.12 174.605"/>
<path class="l4" d="M1059.04 150.898L1064.12 150.898"/>
<path class="l4" d="M1037.03 162.752L1042.11 162.752"/>
<path class="l4" d="M1055.65 147.511L1055.65 177.992"/>
<path class="l4" d="M1059.04 149.205L1055.65 150.898L1059.04 152.592L1059.04 149.205"/>
<path class="l4" style="fill:none;" d="M1048.88 172.912L1048.88 152.592L1052.27 152.592L1052.27 172.912L1048.88 172.912"/>
<circle class="l4" cx="1045.49" cy="162.752" r="3.38673" style="fill:none;"/>
<path class="l4" d="M1064.12 237.26L1064.12 245.727"/>
<path class="l4" d="M1064.12 269.434L1064.12 277.901"/>
<path class="l4" d="M1055.65 245.727L1064.12 245.727"/>
<path class="l4" d="M1055.65 269.434L1060.73 269.434"/>
<path class="l4" d="M1055.65 242.34L1055.65 272.821"/>
<path class="l4" d="M1037.03 257.58L1048.88 257.58"/>
<path class="l4" d="M1060.73 267.74L1064.12 269.434L1060.73 271.127L1060.73 267.74"/>
<path class="l4" style="fill:none;" d="M1048.88 267.74L1048.88 247.42L1052.27 247.42L1052.27 267.74L1048.88 267.74"/>
<path class="l5" d="M92.1293 127.191L88.7426 128.884L92.1293 130.578L92.1293 127.191"/>
<path class="l5" d="M87.0492 147.511L90.436 147.511L90.436 150.898L87.0492 150.898L87.0492 147.511z"/>
<path class="l5" d="M114.143 127.191L117.53 127.191L117.53 130.578L114.143 130.578L114.143 127.191z"/>
<path class="l5" d="M87.0492 106.871L90.436 106.871L90.436 110.257L87.0492 110.257L87.0492 106.871z"/>
<path class="l5" d="M88.6897 128.832L88.7955 128.832L88.7955 128.937L88.6897 128.937L88.6897 128.832z"/>
<path class="l5" d="M166.637 127.191L170.024 128.884L166.637 130.578L166.637 127.191"/>
<path class="l5" d="M168.331 147.511L171.718 147.511L171.718 150.898L168.331 150.898L168.331 147.511z"/>
<path class="l5" d="M141.237 127.191L144.624 127.191L144.624 130.578L141.237 130.578L141.237 127.191z"/>
<path class="l5" d="M168.331 106.871L171.718 106.871L171.718 110.257L168.331 110.257L168.331 106.871z"/>
<path class="l5" d="M169.971 128.832L170.077 128.832L170.077 128.937L169.971 128.937L169.971 128.832z"/>
<path class="l5" d="M170.024 228.793L173.411 230.486L170.024 232.18L170.024 228.793"/>
<path class="l5" d="M168.331 208.473L171.718 208.473L171.718 211.859L168.331 211.859L168.331 208.473z"/>
<path class="l5" d="M195.425 228.793L198.811 228.793L198.811 232.18L195.425 232.18L195.425 228.793z"/>
<path class="l5" d="M168.331 249.113L171.718 249.113L171.718 252.5L168.331 252.5L168.331 249.113z"/>
<path class="l5" d="M169.971 230.434L170.077 230.434L170.077 230.539L169.971 230.539L169.971 230.434z"/>
<path class="l5" d="M329.201 133.965L332.587 135.658L329.201 137.351L329.201 133.965"/>
<path class="l5" d="M330.894 154.285L334.281 154.285L334.281 157.672L330.894 157.672L330.894 154.285z"/>
<path class="l5" d="M303.8 133.965L307.187 133.965L307.187 137.351L303.8 137.351L303.8 133.965z"/>
<path class="l5" d="M330.894 113.644L334.281 113.644L334.281 117.031L330.894 117.031L330.894 113.644z"/>
<path class="l5" d="M332.534 135.605L332.64 135.605L332.64 135.711L332.534 135.711L332.534 135.605z"/>
<path class="l5" d="M275.013 188.152L278.4 189.846L275.013 191.539L275.013 188.152"/>
<path class="l5" d="M276.706 208.473L280.093 208.473L280.093 211.859L276.706 211.859L276.706 208.473z"/>
<path class="l5" d="M249.612 188.152L252.999 188.152L252.999 191.539L249.612 191.539L249.612 188.152z"/>
<path class="l5" d="M276.706 167.832L280.093 167.832L280.093 171.219L276.706 171.219L276.706 167.832z"/>
<path class="l5" d="M278.347 189.793L278.453 189.793L278.453 189.899L278.347 189.899L278.347 189.793z"/>
<path class="l5" d="M383.388 188.152L380.002 189.846L383.388 191.539L383.388 188.152"/>
<path class="l5" d="M378.308 208.473L381.695 208.473L381.695 211.859L378.308 211.859L378.308 208.473z"/>
<path class="l5" d="M405.402 188.152L408.789 188.152L408.789 191.539L405.402 191.539L405.402 188.152z"/>
<path class="l5" d="M378.308 167.832L381.695 167.832L381.695 171.219L378.308 171.219L378.308 167.832z"/>
<path class="l5" d="M379.949 189.793L380.054 189.793L380.054 189.899L379.949 189.899L379.949 189.793z"/>
<path class="l5" d="M532.405 133.965L535.791 135.658L532.405 137.351L532.405 133.965"/>
<path class="l5" d="M534.098 154.285L537.485 154.285L537.485 157.672L534.098 157.672L534.098 154.285z"/>
<path class="l5" d="M507.004 133.965L510.391 133.965L510.391 137.351L507.004 137.351L507.004 133.965z"/>
<path class="l5" d="M534.098 113.644L537.485 113.644L537.485 117.031L534.098 117.031L534.098 113.644z"/>
<path class="l5" d="M535.738 135.605L535.844 135.605L535.844 135.711L535.738 135.711L535.738 135.605z"/>
<path class="l5" d="M464.67 133.965L461.283 135.658L464.67 137.351L464.67 133.965"/>
<path class="l5" d="M459.59 154.285L462.977 154.285L462.977 157.672L459.59 157.672L459.59 154.285z"/>
<path class="l5" d="M486.684 133.965L490.07 133.965L490.07 137.351L486.684 137.351L486.684 133.965z"/>
<path class="l5" d="M459.59 113.644L462.977 113.644L462.977 117.031L459.59 117.031L459.59 113.644z"/>
<path class="l5" d="M461.23 135.605L461.336 135.605L461.336 135.711L461.23 135.711L461.23 135.605z"/>
<path class="l5" d="M461.283 201.699L464.67 203.393L461.283 205.086L461.283 201.699"/>
<path class="l5" d="M459.59 181.379L462.977 181.379L462.977 184.766L459.59 184.766L459.59 181.379z"/>
<path class="l5" d="M486.684 201.699L490.07 201.699L490.07 205.086L486.684 205.086L486.684 201.699z"/>
<path class="l5" d="M459.59 222.02L462.977 222.02L462.977 225.406L459.59 225.406L459.59 222.02z"/>
<path class="l5" d="M461.23 203.34L461.336 203.34L461.336 203.445L461.23 203.445L461.23 203.34z"/>
<path class="l5" d="M535.791 201.699L532.405 203.393L535.791 205.086L535.791 201.699"/>
<path class="l5" d="M534.098 181.379L537.485 181.379L537.485 184.766L534.098 184.766L534.098 181.379z"/>
<path class="l5" d="M507.004 201.699L510.391 201.699L510.391 205.086L507.004 205.086L507.004 201.699z"/>
<path class="l5" d="M534.098 222.02L537.485 222.02L537.485 225.406L534.098 225.406L534.098 222.02z"/>
<path class="l5" d="M535.738 203.34L535.844 203.34L535.844 203.445L535.738 203.445L535.738 203.34z"/>
<path class="l5" d="M461.283 262.66L464.67 264.354L461.283 266.047L461.283 262.66"/>
<path class="l5" d="M459.59 242.34L462.977 242.34L462.977 245.727L459.59 245.727L459.59 242.34z"/>
<path class="l5" d="M486.684 262.66L490.07 262.66L490.07 266.047L486.684 266.047L486.684 262.66z"/>
<path class="l5" d="M459.59 282.981L462.977 282.981L462.977 286.368L459.59 286.368L459.59 282.981z"/>
<path class="l5" d="M461.23 264.301L461.336 264.301L461.336 264.407L461.23 264.407L461.23 264.301z"/>
<path class="l5" d="M535.791 262.66L532.405 264.354L535.791 266.047L535.791 262.66"/>
<path class="l5" d="M534.098 242.34L537.485 242.34L537.485 245.727L534.098 245.727L534.098 242.34z"/>
<path class="l5" d="M507.004 262.66L510.391 262.66L510.391 266.047L507.004 266.047L507.004 262.66z"/>
<path class="l5" d="M534.098 282.981L537.485 282.981L537.485 286.368L534.098 286.368L534.098 282.981z"/>
<path class="l5" d="M535.738 264.301L535.844 264.301L535.844 264.407L535.738 264.407L535.738 264.301z"/>
<path class="l5" d="M494.304 168.679L495.997 168.679L495.997 170.372L494.304 170.372L494.304 168.679z"/>
<path class="l5" d="M595.906 168.679L597.599 168.679L597.599 170.372L595.906 170.372L595.906 168.679z"/>
<path class="l5" d="M539.178 431.997L542.565 433.69L539.178 435.384L539.178 431.997"/>
<path class="l5" d="M540.871 452.317L544.258 452.317L544.258 455.704L540.871 455.704L540.871 452.317z"/>
<path class="l5" d="M513.777 431.997L517.164 431.997L517.164 435.384L513.777 435.384L513.777 431.997z"/>
<path class="l5" d="M540.871 411.677L544.258 411.677L544.258 415.063L540.871 415.063L540.871 411.677z"/>
<path class="l5" d="M542.512 433.637L542.618 433.637L542.618 433.743L542.512 433.743L542.512 433.637z"/>
<path class="l5" d="M471.443 431.997L468.057 433.69L471.443 435.384L471.443 431.997"/>
<path class="l5" d="M466.363 452.317L469.75 452.317L469.75 455.704L466.363 455.704L466.363 452.317z"/>
<path class="l5" d="M493.457 431.997L496.844 431.997L496.844 435.384L493.457 435.384L493.457 431.997z"/>
<path class="l5" d="M466.363 411.677L469.75 411.677L469.75 415.063L466.363 415.063L466.363 411.677z"/>
<path class="l5" d="M468.004 433.637L468.11 433.637L468.11 433.743L468.004 433.743L468.004 433.637z"/>
<path class="l5" d="M468.057 560.693L471.443 562.386L468.057 564.08L468.057 560.693"/>
<path class="l5" d="M466.363 540.372L469.75 540.372L469.75 543.759L466.363 543.759L466.363 540.372z"/>
<path class="l5" d="M493.457 560.693L496.844 560.693L496.844 564.08L493.457 564.08L493.457 560.693z"/>
<path class="l5" d="M466.363 581.013L469.75 581.013L469.75 584.4L466.363 584.4L466.363 581.013z"/>
<path class="l5" d="M468.004 562.333L468.11 562.333L468.11 562.439L468.004 562.439L468.004 562.333z"/>
<path class="l5" d="M542.565 560.693L539.178 562.386L542.565 564.08L542.565 560.693"/>
<path class="l5" d="M540.871 540.372L544.258 540.372L544.258 543.759L540.871 543.759L540.871 540.372z"/>
<path class="l5" d="M513.777 560.693L517.164 560.693L517.164 564.08L513.777 564.08L513.777 560.693z"/>
<path class="l5" d="M540.871 581.013L544.258 581.013L544.258 584.4L540.871 584.4L540.871 581.013z"/>
<path class="l5" d="M542.512 562.333L542.618 562.333L542.618 562.439L542.512 562.439L542.512 562.333z"/>
<path class="l5" d="M539.178 499.732L542.565 501.425L539.178 503.118L539.178 499.732"/>
<path class="l5" d="M540.871 520.052L544.258 520.052L544.258 523.439L540.871 523.439L540.871 520.052z"/>
<path class="l5" d="M513.777 499.732L517.164 499.732L517.164 503.118L513.777 503.118L513.777 499.732z"/>
<path class="l5" d="M540.871 479.411L544.258 479.411L544.258 482.798L540.871 482.798L540.871 479.411z"/>
<path class="l5" d="M542.512 501.372L542.618 501.372L542.618 501.478L542.512 501.478L542.512 501.372z"/>
<path class="l5" d="M471.443 499.732L468.057 501.425L471.443 503.118L471.443 499.732"/>
<path class="l5" d="M466.363 520.052L469.75 520.052L469.75 523.439L466.363 523.439L466.363 520.052z"/>
<path class="l5" d="M493.457 499.732L496.844 499.732L496.844 503.118L493.457 503.118L493.457 499.732z"/>
<path class="l5" d="M466.363 479.411L469.75 479.411L469.75 482.798L466.363 482.798L466.363 479.411z"/>
<path class="l5" d="M468.004 501.372L468.11 501.372L468.11 501.478L468.004 501.478L468.004 501.372z"/>
<path class="l5" d="M332.587 560.693L329.201 562.386L332.587 564.08L332.587 560.693"/>
<path class="l5" d="M330.894 540.372L334.281 540.372L334.281 543.759L330.894 543.759L330.894 540.372z"/>
<path class="l5" d="M303.8 560.693L307.187 560.693L307.187 564.08L303.8 564.08L303.8 560.693z"/>
<path class="l5" d="M330.894 581.013L334.281 581.013L334.281 584.4L330.894 584.4L330.894 581.013z"/>
<path class="l5" d="M332.534 562.333L332.64 562.333L332.64 562.439L332.534 562.439L332.534 562.333z"/>
<path class="l5" d="M264.853 506.505L261.466 508.198L264.853 509.892L264.853 506.505"/>
<path class="l5" d="M263.159 486.185L266.546 486.185L266.546 489.571L263.159 489.571L263.159 486.185z"/>
<path class="l5" d="M236.065 506.505L239.452 506.505L239.452 509.892L236.065 509.892L236.065 506.505z"/>
<path class="l5" d="M263.159 526.825L266.546 526.825L266.546 530.212L263.159 530.212L263.159 526.825z"/>
<path class="l5" d="M264.8 508.146L264.906 508.146L264.906 508.251L264.8 508.251L264.8 508.146z"/>
<path class="l5" d="M366.455 506.505L369.841 508.198L366.455 509.892L366.455 506.505"/>
<path class="l5" d="M364.761 486.185L368.148 486.185L368.148 489.571L364.761 489.571L364.761 486.185z"/>
<path class="l5" d="M391.855 506.505L395.242 506.505L395.242 509.892L391.855 509.892L391.855 506.505z"/>
<path class="l5" d="M364.761 526.825L368.148 526.825L368.148 530.212L364.761 530.212L364.761 526.825z"/>
<path class="l5" d="M366.402 508.146L366.508 508.146L366.508 508.251L366.402 508.251L366.402 508.146z"/>
<path class="l5" d="M548.491 534.446L550.185 534.446L550.185 536.139L548.491 536.139L548.491 534.446z"/>
<path class="l5" d="M722.062 154.285L725.448 155.978L722.062 157.672L722.062 154.285"/>
<path class="l5" d="M723.755 174.605L727.142 174.605L727.142 177.992L723.755 177.992L723.755 174.605z"/>
<path class="l5" d="M696.661 154.285L700.048 154.285L700.048 157.672L696.661 157.672L696.661 154.285z"/>
<path class="l5" d="M723.755 133.965L727.142 133.965L727.142 137.351L723.755 137.351L723.755 133.965z"/>
<path class="l5" d="M725.395 155.925L725.501 155.925L725.501 156.031L725.395 156.031L725.395 155.925z"/>
<path class="l5" d="M725.448 249.113L722.062 250.807L725.448 252.5L725.448 249.113"/>
<path class="l5" d="M723.755 228.793L727.142 228.793L727.142 232.18L723.755 232.18L723.755 228.793z"/>
<path class="l5" d="M696.661 249.113L700.048 249.113L700.048 252.5L696.661 252.5L696.661 249.113z"/>
<path class="l5" d="M723.755 269.434L727.142 269.434L727.142 272.821L723.755 272.821L723.755 269.434z"/>
<path class="l5" d="M725.395 250.754L725.501 250.754L725.501 250.86L725.395 250.86L725.395 250.754z"/>
<path class="l5" d="M697.508 155.132L699.201 155.132L699.201 156.825L697.508 156.825L697.508 155.132z"/>
<path class="l5" d="M697.508 249.96L699.201 249.96L699.201 251.654L697.508 251.654L697.508 249.96z"/>
<path class="l5" d="M738.148 202.546L739.842 202.546L739.842 204.239L738.148 204.239L738.148 202.546z"/>
<path class="l5" d="M230.139 317.695L231.832 317.695L231.832 319.388L230.139 319.388L230.139 317.695z"/>
<path class="l5" d="M392.702 338.015L394.395 338.015L394.395 339.709L392.702 339.709L392.702 338.015z"/>
<path class="l5" d="M501.077 459.938L502.771 459.938L502.771 461.631L501.077 461.631L501.077 459.938z"/>
<path class="l5" d="M670.414 405.75L672.107 405.75L672.107 407.443L670.414 407.443L670.414 405.75z"/>
<path class="l5" d="M468.903 67.9233L474.83 67.9233"/>
<path class="l5" d="M462.977 67.9233L465.517 64.5366L471.443 64.5366L468.903 67.9233L471.443 71.31L465.517 71.31L462.977 67.9233"/>
<path class="l5" d="M473.983 67.0766L475.677 67.0766L475.677 68.77L473.983 68.77L473.983 67.0766z"/>
<path class="l5" d="M471.443 54.3764L474.83 54.3764"/>
<path class="l5" d="M471.443 54.3764L468.903 50.9896L462.977 50.9896L465.517 54.3764L462.977 57.7631L468.903 57.7631L471.443 54.3764"/>
<path class="l5" d="M473.983 53.5297L475.677 53.5297L475.677 55.223L473.983 55.223L473.983 53.5297z"/>
<path class="l5" d="M473.983 53.5297L475.677 53.5297L475.677 55.223L473.983 55.223L473.983 53.5297z"/>
<path class="l5" d="M473.983 67.0766L475.677 67.0766L475.677 68.77L473.983 68.77L473.983 67.0766z"/>
<path class="l5" d="M365.608 317.695L367.301 317.695L367.301 319.388L365.608 319.388L365.608 317.695z"/>
<path class="l5" d="M724.602 283.827L726.295 283.827L726.295 285.521L724.602 285.521L724.602 283.827z"/>
<path class="l5" d="M663.64 459.938L665.334 459.938L665.334 461.631L663.64 461.631L663.64 459.938z"/>
<path class="l5" d="M501.077 602.18L502.771 602.18L502.771 603.874L501.077 603.874L501.077 602.18z"/>
<path class="l5" d="M472.713 34.056L474.83 34.056"/>
<path class="l5" d="M465.517 37.4427L462.977 34.056L465.517 30.6692L470.173 30.6692L472.713 34.056L470.173 37.4427L465.517 37.4427"/>
<path class="l5" d="M473.983 33.2093L475.677 33.2093L475.677 34.9027L473.983 34.9027L473.983 33.2093z"/>
<path class="l5" d="M473.983 33.2093L475.677 33.2093L475.677 34.9027L473.983 34.9027L473.983 33.2093z"/>
<path class="l5" d="M472.713 20.509L474.83 20.509"/>
<path class="l5" d="M465.517 23.8958L462.977 20.509L465.517 17.1223L470.173 17.1223L472.713 20.509L470.173 23.8958L465.517 23.8958"/>
<path class="l5" d="M473.983 19.6624L475.677 19.6624L475.677 21.3557L473.983 21.3557L473.983 19.6624z"/>
<path class="l5" d="M473.983 19.6624L475.677 19.6624L475.677 21.3557L473.983 21.3557L473.983 19.6624z"/>
<path class="l5" d="M663.64 344.789L665.334 344.789L665.334 346.482L663.64 346.482L663.64 344.789z"/>
<path class="l5" d="M724.602 121.264L726.295 121.264L726.295 122.958L724.602 122.958L724.602 121.264z"/>
<path class="l5" d="M358.834 87.397L360.528 87.397L360.528 89.0904L358.834 89.0904L358.834 87.397z"/>
<path class="l5" d="M521.398 392.203L523.091 392.203L523.091 393.896L521.398 393.896L521.398 392.203z"/>
<path class="l5" d="M81.1225 128.038L82.8158 128.038L82.8158 129.731L81.1225 129.731L81.1225 128.038z"/>
<path class="l5" d="M175.951 128.038L177.644 128.038L177.644 129.731L175.951 129.731L175.951 128.038z"/>
<path class="l5" d="M155.631 229.64L157.324 229.64L157.324 231.333L155.631 231.333L155.631 229.64z"/>
<path class="l5" d="M338.514 134.811L340.207 134.811L340.207 136.505L338.514 136.505L338.514 134.811z"/>
<path class="l5" d="M284.326 188.999L286.02 188.999L286.02 190.692L284.326 190.692L284.326 188.999z"/>
<path class="l5" d="M372.381 188.999L374.075 188.999L374.075 190.692L372.381 190.692L372.381 188.999z"/>
<path class="l5" d="M453.663 134.811L455.356 134.811L455.356 136.505L453.663 136.505L453.663 134.811z"/>
<path class="l5" d="M541.718 134.811L543.411 134.811L543.411 136.505L541.718 136.505L541.718 134.811z"/>
<path class="l5" d="M548.491 202.546L550.185 202.546L550.185 204.239L548.491 204.239L548.491 202.546z"/>
<path class="l5" d="M453.663 202.546L455.356 202.546L455.356 204.239L453.663 204.239L453.663 202.546z"/>
<path class="l5" d="M453.663 263.507L455.356 263.507L455.356 265.2L453.663 265.2L453.663 263.507z"/>
<path class="l5" d="M541.718 263.507L543.411 263.507L543.411 265.2L541.718 265.2L541.718 263.507z"/>
<path class="l5" d="M460.436 432.844L462.13 432.844L462.13 434.537L460.436 434.537L460.436 432.844z"/>
<path class="l5" d="M548.491 432.844L550.185 432.844L550.185 434.537L548.491 434.537L548.491 432.844z"/>
<path class="l5" d="M460.436 500.578L462.13 500.578L462.13 502.272L460.436 502.272L460.436 500.578z"/>
<path class="l5" d="M555.265 500.578L556.958 500.578L556.958 502.272L555.265 502.272L555.265 500.578z"/>
<path class="l5" d="M460.436 561.539L462.13 561.539L462.13 563.233L460.436 563.233L460.436 561.539z"/>
<path class="l5" d="M548.491 561.539L550.185 561.539L550.185 563.233L548.491 563.233L548.491 561.539z"/>
<path class="l5" d="M270.779 507.352L272.473 507.352L272.473 509.045L270.779 509.045L270.779 507.352z"/>
<path class="l5" d="M358.834 507.352L360.528 507.352L360.528 509.045L358.834 509.045L358.834 507.352z"/>
<path class="l5" d="M345.288 561.539L346.981 561.539L346.981 563.233L345.288 563.233L345.288 561.539z"/>
<path class="l5" d="M87.0492 194.926L90.436 194.926L90.436 198.312L87.0492 198.312L87.0492 194.926z"/>
<path class="l5" d="M87.0492 154.285L90.436 154.285L90.436 157.672L87.0492 157.672L87.0492 154.285z"/>
<path class="l5" d="M73.5023 174.605L76.889 174.605L76.889 177.992L73.5023 177.992L73.5023 174.605z"/>
<path class="l5" d="M74.349 175.452L76.0424 175.452L76.0424 177.145L74.349 177.145L74.349 175.452z"/>
<path class="l5" d="M662.794 398.13L666.18 398.13L666.18 401.516L662.794 401.516L662.794 398.13z"/>
<path class="l5" d="M662.794 357.489L666.18 357.489L666.18 360.876L662.794 360.876L662.794 357.489z"/>
<path class="l5" d="M649.247 377.809L652.634 377.809L652.634 381.196L649.247 381.196L649.247 377.809z"/>
<path class="l5" d="M662.794 452.317L666.18 452.317L666.18 455.704L662.794 455.704L662.794 452.317z"/>
<path class="l5" d="M662.794 411.677L666.18 411.677L666.18 415.063L662.794 415.063L662.794 411.677z"/>
<path class="l5" d="M649.247 431.997L652.634 431.997L652.634 435.384L649.247 435.384L649.247 431.997z"/>
<path class="l5" d="M837.21 154.285L840.597 155.978L837.21 157.672L837.21 154.285"/>
<path class="l5" d="M838.904 174.605L842.29 174.605L842.29 177.992L838.904 177.992L838.904 174.605z"/>
<path class="l5" d="M811.81 154.285L815.197 154.285L815.197 157.672L811.81 157.672L811.81 154.285z"/>
<path class="l5" d="M838.904 133.965L842.29 133.965L842.29 137.351L838.904 137.351L838.904 133.965z"/>
<path class="l5" d="M840.544 155.925L840.65 155.925L840.65 156.031L840.544 156.031L840.544 155.925z"/>
<path class="l5" d="M840.597 249.113L837.21 250.807L840.597 252.5L840.597 249.113"/>
<path class="l5" d="M838.904 228.793L842.29 228.793L842.29 232.18L838.904 232.18L838.904 228.793z"/>
<path class="l5" d="M811.81 249.113L815.197 249.113L815.197 252.5L811.81 252.5L811.81 249.113z"/>
<path class="l5" d="M838.904 269.434L842.29 269.434L842.29 272.821L838.904 272.821L838.904 269.434z"/>
<path class="l5" d="M840.544 250.754L840.65 250.754L840.65 250.86L840.544 250.86L840.544 250.754z"/>
<path class="l5" d="M812.657 155.132L814.35 155.132L814.35 156.825L812.657 156.825L812.657 155.132z"/>
<path class="l5" d="M812.657 249.96L814.35 249.96L814.35 251.654L812.657 251.654L812.657 249.96z"/>
<path class="l5" d="M853.297 202.546L854.991 202.546L854.991 204.239L853.297 204.239L853.297 202.546z"/>
<path class="l5" d="M839.75 283.827L841.444 283.827L841.444 285.521L839.75 285.521L839.75 283.827z"/>
<path class="l5" d="M839.75 121.264L841.444 121.264L841.444 122.958L839.75 122.958L839.75 121.264z"/>
<path class="l5" d="M945.586 154.285L948.973 155.978L945.586 157.672L945.586 154.285"/>
<path class="l5" d="M947.279 174.605L950.666 174.605L950.666 177.992L947.279 177.992L947.279 174.605z"/>
<path class="l5" d="M920.185 154.285L923.572 154.285L923.572 157.672L920.185 157.672L920.185 154.285z"/>
<path class="l5" d="M947.279 133.965L950.666 133.965L950.666 137.351L947.279 137.351L947.279 133.965z"/>
<path class="l5" d="M948.92 155.925L949.025 155.925L949.025 156.031L948.92 156.031L948.92 155.925z"/>
<path class="l5" d="M948.973 249.113L945.586 250.807L948.973 252.5L948.973 249.113"/>
<path class="l5" d="M947.279 228.793L950.666 228.793L950.666 232.18L947.279 232.18L947.279 228.793z"/>
<path class="l5" d="M920.185 249.113L923.572 249.113L923.572 252.5L920.185 252.5L920.185 249.113z"/>
<path class="l5" d="M947.279 269.434L950.666 269.434L950.666 272.821L947.279 272.821L947.279 269.434z"/>
<path class="l5" d="M948.92 250.754L949.025 250.754L949.025 250.86L948.92 250.86L948.92 250.754z"/>
<path class="l5" d="M921.032 155.132L922.725 155.132L922.725 156.825L921.032 156.825L921.032 155.132z"/>
<path class="l5" d="M921.032 249.96L922.725 249.96L922.725 251.654L921.032 251.654L921.032 249.96z"/>
<path class="l5" d="M961.673 202.546L963.366 202.546L963.366 204.239L961.673 204.239L961.673 202.546z"/>
<path class="l5" d="M948.126 283.827L949.819 283.827L949.819 285.521L948.126 285.521L948.126 283.827z"/>
<path class="l5" d="M948.126 121.264L949.819 121.264L949.819 122.958L948.126 122.958L948.126 121.264z"/>
<path class="l5" d="M1060.73 161.058L1064.12 162.752L1060.73 164.445L1060.73 161.058"/>
<path class="l5" d="M1062.43 181.379L1065.81 181.379L1065.81 184.766L1062.43 184.766L1062.43 181.379z"/>
<path class="l5" d="M1035.33 161.058L1038.72 161.058L1038.72 164.445L1035.33 164.445L1035.33 161.058z"/>
<path class="l5" d="M1062.43 140.738L1065.81 140.738L1065.81 144.125L1062.43 144.125L1062.43 140.738z"/>
<path class="l5" d="M1064.07 162.699L1064.17 162.699L1064.17 162.805L1064.07 162.805L1064.07 162.699z"/>
<path class="l5" d="M1064.12 255.887L1060.73 257.58L1064.12 259.274L1064.12 255.887"/>
<path class="l5" d="M1062.43 235.567L1065.81 235.567L1065.81 238.953L1062.43 238.953L1062.43 235.567z"/>
<path class="l5" d="M1035.33 255.887L1038.72 255.887L1038.72 259.274L1035.33 259.274L1035.33 255.887z"/>
<path class="l5" d="M1062.43 276.207L1065.81 276.207L1065.81 279.594L1062.43 279.594L1062.43 276.207z"/>
<path class="l5" d="M1064.07 257.527L1064.17 257.527L1064.17 257.633L1064.07 257.633L1064.07 257.527z"/>
<path class="l5" d="M1036.18 161.905L1037.87 161.905L1037.87 163.598L1036.18 163.598L1036.18 161.905z"/>
<path class="l5" d="M1036.18 256.734L1037.87 256.734L1037.87 258.427L1036.18 258.427L1036.18 256.734z"/>
<path class="l5" d="M1076.82 209.319L1078.52 209.319L1078.52 211.013L1076.82 211.013L1076.82 209.319z"/>
<path class="l5" d="M1063.27 290.601L1064.97 290.601L1064.97 292.294L1063.27 292.294L1063.27 290.601z"/>
<path class="l5" d="M1063.27 128.038L1064.97 128.038L1064.97 129.731L1063.27 129.731L1063.27 128.038z"/>
<path class="l5" d="M650.093 378.656L651.787 378.656L651.787 380.349L650.093 380.349L650.093 378.656z"/>
<path class="l5" d="M650.093 432.844L651.787 432.844L651.787 434.537L650.093 434.537L650.093 432.844z"/>
<path class="l1" d="M115.836 128.884L142.93 128.884"/>
<path class="l1" d="M88.7426 108.564L170.024 108.564"/>
<path class="l1" d="M170.024 108.564L176.798 108.564"/>
<path class="l1" d="M115.836 128.884L115.836 149.205"/>
<path class="l1" d="M88.7426 149.205L115.836 149.205"/>
<path class="l1" d="M88.7426 149.205L88.7426 155.978"/>
<path class="l1" d="M170.024 149.205L170.024 210.166"/>
<path class="l1" d="M88.7426 196.619L88.7426 257.58"/>
<path class="l1" d="M88.7426 257.58L170.024 257.58"/>
<path class="l1" d="M170.024 250.807L170.024 257.58"/>
<path class="l1" d="M156.477 230.486L170.024 230.486"/>
<path class="l1" d="M197.118 210.166L197.118 230.486"/>
<path class="l1" d="M170.024 210.166L197.118 210.166"/>
<path class="l1" d="M176.798 108.564L332.587 108.564"/>
<path class="l1" d="M332.587 108.564L332.587 115.338"/>
<path class="l1" d="M142.93 95.0171L142.93 128.884"/>
<path class="l1" d="M142.93 95.0171L298.72 95.0171"/>
<path class="l1" d="M298.72 95.0171L298.72 135.658"/>
<path class="l1" d="M298.72 135.658L305.493 135.658"/>
<path class="l1" d="M278.4 162.752L278.4 169.525"/>
<path class="l1" d="M278.4 162.752L380.002 162.752"/>
<path class="l1" d="M380.002 162.752L380.002 169.525"/>
<path class="l1" d="M332.587 155.978L332.587 162.752"/>
<path class="l1" d="M278.4 189.846L285.173 189.846"/>
<path class="l1" d="M373.228 189.846L380.002 189.846"/>
<path class="l1" d="M332.587 135.658L339.361 135.658"/>
<path class="l1" d="M488.377 135.658L508.697 135.658"/>
<path class="l1" d="M454.51 135.658L461.283 135.658"/>
<path class="l1" d="M454.51 115.338L461.283 115.338"/>
<path class="l1" d="M535.791 135.658L542.565 135.658"/>
<path class="l1" d="M461.283 115.338L535.791 115.338"/>
<path class="l1" d="M332.587 108.564L454.51 108.564"/>
<path class="l1" d="M454.51 108.564L454.51 115.338"/>
<path class="l1" d="M488.377 135.658L488.377 155.978"/>
<path class="l1" d="M461.283 155.978L488.377 155.978"/>
<path class="l1" d="M535.791 155.978L535.791 183.072"/>
<path class="l1" d="M461.283 155.978L461.283 183.072"/>
<path class="l1" d="M488.377 203.393L508.697 203.393"/>
<path class="l1" d="M535.791 223.713L535.791 244.033"/>
<path class="l1" d="M461.283 223.713L461.283 244.033"/>
<path class="l1" d="M488.377 264.354L508.697 264.354"/>
<path class="l1" d="M461.283 284.674L535.791 284.674"/>
<path class="l1" d="M535.791 203.393L549.338 203.393"/>
<path class="l1" d="M454.51 203.393L461.283 203.393"/>
<path class="l1" d="M535.791 264.354L542.565 264.354"/>
<path class="l1" d="M454.51 264.354L461.283 264.354"/>
<path class="l1" d="M454.51 284.674L461.283 284.674"/>
<path class="l1" d="M197.118 230.486L197.118 298.221"/>
<path class="l1" d="M197.118 298.221L495.15 298.221"/>
<path class="l1" d="M495.15 264.354L495.15 298.221"/>
<path class="l1" d="M170.024 257.58L170.024 284.674"/>
<path class="l1" d="M170.024 284.674L454.51 284.674"/>
<path class="l1" d="M380.002 210.166L380.002 230.486"/>
<path class="l1" d="M380.002 230.486L535.791 230.486"/>
<path class="l1" d="M278.4 210.166L278.4 230.486"/>
<path class="l1" d="M278.4 230.486L278.4 237.26"/>
<path class="l1" d="M278.4 237.26L461.283 237.26"/>
<path class="l1" d="M495.15 169.525L495.15 203.393"/>
<path class="l1" d="M346.134 88.2437L346.134 108.564"/>
<path class="l1" d="M366.455 284.674L366.455 304.995"/>
<path class="l1" d="M535.791 169.525L596.752 169.525"/>
<path class="l1" d="M237.759 189.846L251.306 189.846"/>
<path class="l1" d="M230.985 189.846L237.759 189.846"/>
<path class="l1" d="M495.15 433.69L515.471 433.69"/>
<path class="l1" d="M461.283 433.69L468.057 433.69"/>
<path class="l1" d="M542.565 433.69L549.338 433.69"/>
<path class="l1" d="M468.057 413.37L542.565 413.37"/>
<path class="l1" d="M542.565 454.011L542.565 481.105"/>
<path class="l1" d="M468.057 454.011L468.057 481.105"/>
<path class="l1" d="M495.15 501.425L515.471 501.425"/>
<path class="l1" d="M542.565 521.745L542.565 542.066"/>
<path class="l1" d="M468.057 521.745L468.057 542.066"/>
<path class="l1" d="M495.15 562.386L515.471 562.386"/>
<path class="l1" d="M468.057 582.707L542.565 582.707"/>
<path class="l1" d="M542.565 501.425L556.112 501.425"/>
<path class="l1" d="M461.283 501.425L468.057 501.425"/>
<path class="l1" d="M542.565 562.386L549.338 562.386"/>
<path class="l1" d="M461.283 562.386L468.057 562.386"/>
<path class="l1" d="M461.283 582.707L468.057 582.707"/>
<path class="l1" d="M501.924 467.558L501.924 501.425"/>
<path class="l1" d="M495.15 542.066L495.15 562.386"/>
<path class="l1" d="M468.057 542.066L495.15 542.066"/>
<path class="l1" d="M501.924 582.707L501.924 589.48"/>
<path class="l1" d="M501.924 406.597L501.924 413.37"/>
<path class="l1" d="M264.853 528.519L366.455 528.519"/>
<path class="l1" d="M332.587 528.519L332.587 542.066"/>
<path class="l1" d="M332.587 582.707L461.283 582.707"/>
<path class="l1" d="M332.587 562.386L346.134 562.386"/>
<path class="l1" d="M359.681 508.198L366.455 508.198"/>
<path class="l1" d="M264.853 508.198L271.626 508.198"/>
<path class="l1" d="M366.455 474.331L366.455 487.878"/>
<path class="l1" d="M366.455 474.331L542.565 474.331"/>
<path class="l1" d="M264.853 460.784L264.853 487.878"/>
<path class="l1" d="M264.853 460.784L468.057 460.784"/>
<path class="l1" d="M197.118 298.221L197.118 562.386"/>
<path class="l1" d="M197.118 562.386L305.493 562.386"/>
<path class="l1" d="M495.15 365.956L495.15 433.69"/>
<path class="l1" d="M142.93 365.956L495.15 365.956"/>
<path class="l1" d="M142.93 128.884L142.93 365.956"/>
<path class="l1" d="M542.565 535.292L549.338 535.292"/>
<path class="l1" d="M725.448 176.299L725.448 230.486"/>
<path class="l1" d="M725.448 250.807L732.222 250.807"/>
<path class="l1" d="M732.222 250.807L732.222 271.127"/>
<path class="l1" d="M725.448 271.127L732.222 271.127"/>
<path class="l1" d="M725.448 155.978L738.995 155.978"/>
<path class="l1" d="M738.995 135.658L738.995 155.978"/>
<path class="l1" d="M725.448 135.658L738.995 135.658"/>
<path class="l1" d="M725.448 203.393L738.995 203.393"/>
<path class="l1" d="M230.985 189.846L230.985 508.198"/>
<path class="l1" d="M230.985 508.198L237.759 508.198"/>
<path class="l1" d="M407.095 189.846L407.095 508.198"/>
<path class="l1" d="M393.548 508.198L407.095 508.198"/>
<path class="l1" d="M393.548 338.862L407.095 338.862"/>
<path class="l1" d="M501.924 460.784L501.924 467.558"/>
<path class="l1" d="M664.487 399.823L664.487 413.37"/>
<path class="l1" d="M664.487 406.597L671.261 406.597"/>
<path class="l1" d="M346.134 88.2437L359.681 88.2437"/>
<path class="l1" d="M366.455 304.995L366.455 318.541"/>
<path class="l1" d="M501.924 589.48L501.924 603.027"/>
<path class="l1" d="M501.924 393.05L522.244 393.05"/>
<path class="l1" d="M501.924 393.05L501.924 406.597"/>
<path class="l1" d="M664.487 345.635L664.487 359.182"/>
<path class="l1" d="M725.448 122.111L725.448 135.658"/>
<path class="l1" d="M725.448 271.127L725.448 284.674"/>
<path class="l1" d="M81.9691 128.884L88.7426 128.884"/>
<path class="l1" d="M170.024 128.884L176.798 128.884"/>
<path class="l1" d="M664.487 454.011L664.487 460.784"/>
<path class="l1" d="M840.597 176.299L840.597 230.486"/>
<path class="l1" d="M840.597 250.807L847.371 250.807"/>
<path class="l1" d="M847.371 250.807L847.371 271.127"/>
<path class="l1" d="M840.597 271.127L847.371 271.127"/>
<path class="l1" d="M840.597 155.978L854.144 155.978"/>
<path class="l1" d="M854.144 135.658L854.144 155.978"/>
<path class="l1" d="M840.597 135.658L854.144 135.658"/>
<path class="l1" d="M840.597 203.393L854.144 203.393"/>
<path class="l1" d="M840.597 122.111L840.597 135.658"/>
<path class="l1" d="M840.597 271.127L840.597 284.674"/>
<path class="l1" d="M948.973 176.299L948.973 230.486"/>
<path class="l1" d="M948.973 250.807L955.746 250.807"/>
<path class="l1" d="M955.746 250.807L955.746 271.127"/>
<path class="l1" d="M948.973 271.127L955.746 271.127"/>
<path class="l1" d="M948.973 155.978L962.519 155.978"/>
<path class="l1" d="M962.519 135.658L962.519 155.978"/>
<path class="l1" d="M948.973 135.658L962.519 135.658"/>
<path class="l1" d="M948.973 203.393L962.519 203.393"/>
<path class="l1" d="M948.973 122.111L948.973 135.658"/>
<path class="l1" d="M948.973 271.127L948.973 284.674"/>
<path class="l1" d="M1064.12 183.072L1064.12 237.26"/>
<path class="l1" d="M1064.12 257.58L1070.89 257.58"/>
<path class="l1" d="M1070.89 257.58L1070.89 277.901"/>
<path class="l1" d="M1064.12 277.901L1070.89 277.901"/>
<path class="l1" d="M1064.12 162.752L1077.67 162.752"/>
<path class="l1" d="M1077.67 142.431L1077.67 162.752"/>
<path class="l1" d="M1064.12 142.431L1077.67 142.431"/>
<path class="l1" d="M1064.12 210.166L1077.67 210.166"/>
<path class="l1" d="M1064.12 128.884L1064.12 142.431"/>
<path class="l1" d="M1064.12 277.901L1064.12 291.448"/>
<circle class="l1" cx="142.93" cy="128.884" r="2.70939"/>
<circle class="l1" cx="332.587" cy="108.564" r="2.70939"/>
<circle class="l1" cx="142.93" cy="128.884" r="2.70939"/>
<circle class="l1" cx="197.118" cy="298.221" r="2.70939"/>
<circle class="l1" cx="170.024" cy="257.58" r="2.70939"/>
<circle class="l1" cx="197.118" cy="298.221" r="2.70939"/>
<circle class="l1" cx="197.118" cy="298.221" r="2.70939"/>
<circle class="l1" cx="170.024" cy="257.58" r="2.70939"/>
<circle class="l1" cx="170.024" cy="257.58" r="2.70939"/>
<circle class="l1" cx="142.93" cy="128.884" r="2.70939"/>
<circle class="l1" cx="346.134" cy="108.564" r="2.70939"/>
<circle class="l1" cx="332.587" cy="108.564" r="2.70939"/>
<circle class="l1" cx="332.587" cy="108.564" r="2.70939"/>
<circle class="l1" cx="407.095" cy="338.862" r="2.70939"/>
<circle class="l1" cx="366.455" cy="284.674" r="2.70939"/>
<circle class="l1" cx="461.283" cy="237.26" r="2.70939"/>
<circle class="l1" cx="535.791" cy="230.486" r="2.70939"/>
<circle class="l1" cx="332.587" cy="162.752" r="2.70939"/>
<circle class="l1" cx="468.057" cy="460.784" r="2.70939"/>
<circle class="l1" cx="542.565" cy="474.331" r="2.70939"/>
<circle class="l1" cx="332.587" cy="528.519" r="2.70939"/>
<circle class="l1" cx="725.448" cy="203.393" r="2.70939"/>
<circle class="l1" cx="535.791" cy="169.525" r="2.70939"/>
<circle class="l1" cx="495.15" cy="203.393" r="2.70939"/>
<circle class="l1" cx="495.15" cy="264.354" r="2.70939"/>
<circle class="l1" cx="664.487" cy="406.597" r="2.70939"/>
<circle class="l1" cx="542.565" cy="535.292" r="2.70939"/>
<circle class="l1" cx="501.924" cy="413.37" r="2.70939"/>
<circle class="l1" cx="501.924" cy="582.707" r="2.70939"/>
<circle class="l1" cx="501.924" cy="501.425" r="2.70939"/>
<circle class="l1" cx="948.973" cy="203.393" r="2.70939"/>
<circle class="l1" cx="840.597" cy="203.393" r="2.70939"/>
<circle class="l1" cx="1064.12" cy="210.166" r="2.70939"/>
</svg>
